<svg width="48" height="49" viewBox="0 0 48 49" fill="none" xmlns="http://www.w3.org/2000/svg">
    <path d="M12.6863 41.5496L13.471 41.9388C16.7408 43.8847 20.4029 44.7928 24.0651 44.7928C35.5746 44.7928 44.9915 35.4523 44.9915 24.0361C44.9915 18.5874 42.7681 13.2685 38.8443 9.37659C34.9206 5.4847 29.689 3.2793 24.0651 3.2793C12.5555 3.2793 3.13862 12.6198 3.26941 24.1658C3.26941 28.0577 4.44652 31.8198 6.40838 35.0631L6.93154 35.8415L4.83889 43.4955L12.6863 41.5496Z" fill="#00E676"/>
    <path d="M41.0681 7.30033C36.6213 2.75979 30.4741 0.294922 24.1962 0.294922C10.8556 0.294922 0.13079 11.0625 0.26158 24.1652C0.26158 28.3165 1.43869 32.3382 3.40054 35.9706L0 48.2949L12.6866 45.0517C16.218 46.9976 20.1417 47.9057 24.0654 47.9057C37.2752 47.9057 48 37.1382 48 24.0355C48 17.6787 45.515 11.7111 41.0681 7.30033V7.30033ZM24.1962 43.8841C20.6648 43.8841 17.1335 42.976 14.1253 41.1598L13.3406 40.7706L5.75477 42.7165L7.71662 35.3219L7.19346 34.5436C1.43869 25.3328 4.18529 13.1382 13.6022 7.43006C23.0191 1.72195 35.1826 4.44627 40.9373 13.7868C46.6921 23.1274 43.9455 35.1922 34.5286 40.9003C31.5204 42.8463 27.8583 43.8841 24.1962 43.8841V43.8841ZM35.7057 29.4841L34.267 28.8355C34.267 28.8355 32.1744 27.9274 30.8665 27.2787C30.7357 27.2787 30.6049 27.149 30.4741 27.149C30.0817 27.149 29.8202 27.2787 29.5586 27.4084C29.5586 27.4084 29.4278 27.5382 27.5967 29.6138C27.4659 29.8733 27.2044 30.003 26.9428 30.003H26.812C26.6812 30.003 26.4196 29.8733 26.2888 29.7436L25.6349 29.4841C24.1962 28.8355 22.8883 28.0571 21.842 27.0192C21.5804 26.7598 21.188 26.5003 20.9264 26.2409C20.0109 25.3328 19.0954 24.2949 18.4414 23.1274L18.3106 22.8679C18.1798 22.7382 18.1798 22.6084 18.049 22.349C18.049 22.0895 18.049 21.8301 18.1798 21.7003C18.1798 21.7003 18.703 21.0517 19.0954 20.6625C19.3569 20.403 19.4877 20.0138 19.7493 19.7544C20.0109 19.3652 20.1417 18.8463 20.0109 18.4571C19.8801 17.8084 18.3106 14.3057 17.9183 13.5274C17.6567 13.1382 17.3951 13.0084 17.0027 12.8787H15.564C15.3025 12.8787 15.0409 13.0084 14.7793 13.0084L14.6485 13.1382C14.3869 13.2679 14.1253 13.5274 13.8638 13.6571C13.6022 13.9165 13.4714 14.176 13.2098 14.4355C12.2943 15.603 11.7711 17.0301 11.7711 18.4571C11.7711 19.4949 12.0327 20.5328 12.4251 21.4409L12.5559 21.8301C13.733 24.2949 15.3025 26.5003 17.3951 28.4463L17.9183 28.9652C18.3106 29.3544 18.703 29.6138 18.9646 30.003C21.7112 32.3382 24.8501 34.0247 28.3815 34.9328C28.7738 35.0625 29.297 35.0625 29.6894 35.1922H30.9973C31.6512 35.1922 32.436 34.9328 32.9591 34.6733C33.3515 34.4138 33.6131 34.4138 33.8747 34.1544L34.1362 33.8949C34.3978 33.6355 34.6594 33.5057 34.921 33.2463C35.1826 32.9868 35.4441 32.7274 35.5749 32.4679C35.8365 31.949 35.9673 31.3003 36.0981 30.6517V29.7436C36.0981 29.7436 35.9673 29.6138 35.7057 29.4841V29.4841Z" fill="white"/>
</svg>
