<svg width="88" height="81" viewBox="0 0 88 81" fill="none" xmlns="http://www.w3.org/2000/svg">
    <path d="M70.4651 79.4975V58.7607" stroke="black" stroke-width="2" stroke-linecap="round" stroke-linejoin="round"/>
    <path d="M63.2412 47.9348V79.1925" stroke="black" stroke-width="2" stroke-linecap="round" stroke-linejoin="round"/>
    <path d="M77.6885 47.9346V79.1922" stroke="black" stroke-width="2" stroke-linecap="round" stroke-linejoin="round"/>
    <path d="M78.1844 47.9346C80.8274 45.4951 86.1744 38.4813 86.4183 29.9425C86.4183 27.6936 84.8544 26.312 83.3283 25.5647C82.3171 25.0696 81.2453 25.8291 81.0741 26.9419L80.9176 27.959C80.4262 31.1538 79.0835 34.1572 77.0306 36.6539L75.1252 38.9713C74.7453 39.4334 74.1785 39.7011 73.5803 39.7011H64.0041C62.1743 39.7011 58.5147 41.1344 58.5147 46.8675C58.5147 49.176 58.5147 51.0181 58.5147 52.4415C58.5147 54.8285 59.4629 57.1169 61.1507 58.8047L63.2415 60.8954" stroke="black" stroke-width="2" stroke-linecap="round" stroke-linejoin="round"/>
    <circle cx="68.9278" cy="30.4473" r="5.6866" stroke="black" stroke-width="2" stroke-linecap="round" stroke-linejoin="round"/>
    <rect x="28.2578" y="60.3926" width="27.0557" height="19.105" rx="2" stroke="#F0AB00" stroke-width="2" stroke-linecap="round" stroke-linejoin="round"/>
    <rect x="36.9473" y="54.9404" width="10.3135" height="5.45215" stroke="#F0AB00" stroke-width="2" stroke-linecap="round" stroke-linejoin="round"/>
    <path d="M34.9648 79.4976V66.3042" stroke="#F0AB00" stroke-width="2" stroke-linecap="round" stroke-linejoin="round"/>
    <path d="M49.332 79.4976V66.3042" stroke="#F0AB00" stroke-width="2" stroke-linecap="round" stroke-linejoin="round"/>
    <path d="M1.85464 17.6017C2.01098 17.4355 2.22106 17.2844 2.52885 17.1283C2.58747 17.1132 2.73404 17.093 2.84152 17.0829C2.949 17.0678 3.06137 17.0578 3.17373 17.0427C3.28121 17.0275 3.39847 17.0175 3.53038 17.0124C3.80397 17.0074 4.09221 17.0326 4.34626 17.0578C4.4 17.0779 4.49282 17.1182 4.55145 17.1434C4.96183 17.3247 5.38199 17.6269 5.82657 17.9391C6.27604 18.2564 6.72062 18.5787 7.1652 18.906C7.47299 19.1327 7.78078 19.3543 8.08856 19.5759C9.06567 20.2759 10.0428 20.981 11.0248 21.676C11.2153 21.8119 11.3961 21.9177 11.5524 22.0083C11.6306 22.0537 11.7087 22.099 11.782 22.1494C12.2168 22.4364 12.7054 22.5774 13.1988 22.5674C13.5457 22.5573 13.8877 22.4767 14.2248 22.3206C14.5228 22.1796 14.8208 22.0436 15.1237 21.9076C15.451 21.7616 15.7735 21.6105 16.1008 21.4594C16.6871 21.1824 17.2685 20.9004 17.8498 20.6184L18.1527 20.4723C18.3433 20.3817 18.5289 20.291 18.7195 20.1953C18.9442 20.0845 19.1689 19.9788 19.3937 19.868L20.3463 19.4046L21.2843 18.9514C21.8706 18.6693 22.4569 18.3823 23.0382 18.0952C23.5659 17.8333 24.0935 17.5715 24.6163 17.3045L25.2807 16.9721C25.3393 16.9419 25.4517 16.8865 25.5787 16.8009C25.7106 16.7103 25.8328 16.6095 25.9354 16.4937C26.3115 16.0858 26.5021 15.5368 26.463 14.9879C26.4239 14.4339 26.1454 13.9101 25.7057 13.5626C25.525 13.4216 25.3344 13.2856 25.1195 13.1497L24.797 12.9482C24.1619 12.5504 23.5219 12.1475 22.8819 11.7597C21.9097 11.1654 20.9326 10.5812 19.9555 9.99701C19.5598 9.76031 19.164 9.52361 18.7683 9.29194C18.1625 8.93437 17.5567 8.57177 16.9558 8.20916C16.2816 7.79619 15.622 7.3933 15.0162 6.935C14.9625 6.89471 14.899 6.83931 14.855 6.72348C15.3191 6.38606 15.8517 6.08892 16.3207 5.83207C16.4379 5.7666 16.604 5.70113 16.7799 5.63063C16.9362 5.57019 17.0877 5.50472 17.2391 5.43421C17.6251 5.25795 18.1381 5.21766 18.7341 5.17233C18.9002 5.15722 19.0663 5.14715 19.2324 5.13204C19.3692 5.13708 19.506 5.14211 19.6428 5.14715C20.0483 5.16226 20.4343 5.17737 20.8105 5.20758C21.045 5.22773 21.2843 5.25291 21.426 5.31334C21.6605 5.40903 21.8657 5.44932 21.9976 5.4745L22.0563 5.48961L22.3347 5.55508C22.5204 5.60041 22.706 5.6407 22.8917 5.69106C23.0676 5.73639 23.2386 5.78675 23.4095 5.83711L23.5952 5.89251C23.8981 5.97812 24.201 6.06374 24.5039 6.15439L24.9241 6.28029C25.2025 6.36087 25.4761 6.44649 25.7546 6.52203C25.9158 6.56736 26.077 6.60765 26.2383 6.6429C26.3506 6.66808 26.4679 6.6983 26.5803 6.72852C26.7122 6.76377 26.8392 6.80406 26.9711 6.84939C27.0932 6.88968 27.2154 6.92493 27.3375 6.96522C27.5329 7.02565 27.7332 7.07601 27.9287 7.13141L28.1387 7.19185L28.4514 7.27746C28.6371 7.32782 28.8178 7.37819 29.0035 7.42855C29.2917 7.50913 29.58 7.58971 29.8633 7.67532C29.9757 7.71058 30.0881 7.74583 30.2004 7.78108C30.3519 7.83144 30.5033 7.87677 30.6548 7.9221C30.8209 7.97246 30.9919 8.01778 31.158 8.06311L31.4316 8.13865C31.71 8.2142 31.9836 8.29478 32.2621 8.37535C32.4282 8.42068 32.5894 8.47104 32.7507 8.5214L33.0731 8.61709L33.2685 8.67753C33.503 8.74803 33.7424 8.81854 33.9818 8.88401C34.1039 8.91926 34.2261 8.94948 34.3433 8.97466C34.402 8.98977 34.4606 8.99984 34.5143 9.01495C34.6267 9.04517 34.7391 9.07539 34.8514 9.11064L35.0273 9.161C35.3888 9.26676 35.7504 9.37252 36.1168 9.47828C36.278 9.52864 36.4441 9.57397 36.6053 9.62433C36.8398 9.69484 37.0743 9.76534 37.3137 9.83585C37.6117 9.92147 37.9049 9.99701 38.154 10.0574C38.3495 10.1078 38.5546 10.128 38.755 10.1229C39.2679 10.1128 39.6588 9.9265 39.8689 9.83082L39.9177 9.81067C40.289 9.63944 40.6554 9.46317 41.0218 9.28691L41.2417 9.18115L42.3165 8.66242C42.7611 8.4509 43.2008 8.23434 43.6454 8.02282C43.8945 7.90195 45.0084 7.37819 45.3113 7.2271C45.6533 7.06091 46.0002 6.88968 46.3422 6.72348L46.7184 6.53714L47.2118 6.29037C47.4463 6.17454 47.6808 6.0587 47.9202 5.94287L48.2084 5.80186C48.6042 5.60544 49.0048 5.40903 49.4005 5.21766C49.5959 5.12197 49.7913 5.03132 49.9868 4.94067C50.2115 4.83491 50.4362 4.73418 50.661 4.62339C50.9248 4.49748 51.1837 4.36654 51.4475 4.2356C51.6381 4.13991 51.8286 4.04422 52.0191 3.95357C52.4246 3.75716 52.8301 3.55571 53.2405 3.36434C53.7486 3.12763 54.1639 2.93626 54.5449 2.77006C54.6964 2.70459 54.8479 2.64416 54.9993 2.57869C55.2485 2.47796 55.5074 2.3722 55.781 2.24126C56.0399 2.12039 56.3575 2.02471 56.6995 1.91895L56.934 1.84844C57.0219 1.82326 57.1489 1.79304 57.2857 1.76786C57.359 1.75275 57.4372 1.73764 57.5105 1.72253L57.6277 1.69735C57.8036 1.65706 57.9795 1.62181 58.1553 1.58656L58.4143 1.5362C58.6732 1.48583 58.9126 1.44051 59.1325 1.41533C59.45 1.38007 59.792 1.36496 60.2024 1.35489H60.3196C60.7007 1.34482 61.1111 1.33475 61.497 1.35489C61.7462 1.36496 62.0247 1.40022 62.3129 1.43547L62.523 1.46065C62.8503 1.50094 63.119 1.5362 63.3682 1.58152C63.7102 1.64699 64.0571 1.73261 64.3844 1.81319C64.5065 1.8434 64.6482 1.88873 64.7997 1.93909L64.9365 1.98442C65.4006 2.13047 65.8842 2.3571 66.4656 2.69452C67.1594 3.09742 67.7359 3.57082 68.2342 4.13991C68.3905 4.32121 68.5078 4.50252 68.581 4.68886C68.581 4.68886 68.581 4.68886 68.581 4.69389C68.454 5.0011 68.2586 5.28816 67.9899 5.58026C67.858 5.72631 67.7065 5.86733 67.5307 6.01841C66.9493 6.517 66.3581 6.96522 65.7719 7.34797C65.0195 7.84655 64.0229 8.49622 63.0018 9.12575C62.137 9.65455 61.1844 10.2186 60.007 10.8985C59.4354 11.2309 58.8344 11.5582 58.2579 11.8755C57.9844 12.0266 57.7157 12.1726 57.4421 12.3237C57.2222 12.4446 57.0024 12.5705 56.7825 12.6914C56.3184 12.9482 55.8592 13.2101 55.3901 13.4569C54.9114 13.7137 54.4277 13.9605 53.944 14.2123C53.646 14.3684 53.348 14.5195 53.05 14.6756C52.8057 14.8015 52.5663 14.9325 52.322 15.0634C52.0826 15.1944 51.8384 15.3203 51.5941 15.4462C51.2521 15.6224 50.9101 15.7987 50.5681 15.975L49.9819 16.2772L49.9281 16.3023C49.7767 16.3728 49.5275 16.4887 49.2735 16.7002C49.1855 16.7757 49.0976 16.8563 49.0194 16.9419C48.8094 17.1686 48.6335 17.4405 48.5113 17.7225C48.184 18.488 47.8664 19.2535 47.544 20.019L47.3681 20.437C47.0115 21.2882 46.6597 22.1342 46.308 22.9854C46.2054 23.2321 46.1077 23.4739 46.0051 23.7207C45.8585 24.0833 45.707 24.4459 45.5556 24.8034C45.4041 25.166 45.2478 25.5236 45.0915 25.8812C44.94 26.2337 44.7886 26.5862 44.6371 26.9388C44.4857 27.3014 44.3342 27.664 44.1828 28.0266C44.0362 28.3791 43.8896 28.7317 43.7431 29.0842C43.577 29.477 43.4109 29.8699 43.2399 30.2576C43.0738 30.6454 42.9076 31.0332 42.7415 31.421C42.6243 31.703 42.507 31.9851 42.3898 32.2721C42.2774 32.5491 42.165 32.8211 42.0478 33.093C41.8915 33.4657 41.7302 33.8333 41.569 34.206C41.4224 34.5434 41.2759 34.8859 41.1342 35.2233C41.017 35.5054 40.8997 35.7874 40.7824 36.0644C40.6359 36.4219 40.4844 36.7795 40.333 37.132C40.1424 37.5752 39.947 38.0134 39.7516 38.4515C39.6392 38.6983 39.5318 38.9501 39.4194 39.2019C39.3266 39.4084 39.2386 39.6149 39.1458 39.8214C39.0139 40.1185 38.8869 40.4207 38.755 40.7178C38.3934 41.5287 38.0466 42.2992 37.6166 42.9791C37.3675 43.3719 37.0499 43.7849 36.6151 44.2734C36.5858 44.3036 36.5565 44.3389 36.5272 44.3691C36.2878 44.6259 36.0728 44.8123 35.8578 44.9482C35.3302 45.2806 34.7733 45.6231 34.2163 45.8598L33.9134 45.9907C33.6301 46.1116 33.3662 46.2274 33.1122 46.3231C33.0926 46.3332 33.0682 46.3382 33.0487 46.3433C32.9998 46.2073 32.9705 45.9857 33.0389 45.5677C33.0487 45.5072 33.0584 45.4518 33.0682 45.3914L33.1317 44.8928C33.1708 44.5554 33.2148 44.218 33.2587 43.8856C33.3223 43.4072 33.3955 42.9338 33.4639 42.4553L33.5226 42.0625L33.547 41.8862C33.5959 41.5639 33.6398 41.2466 33.6936 40.9243C33.7278 40.7229 33.762 40.5264 33.7962 40.325C33.8401 40.0732 33.8841 39.8214 33.9232 39.5696C33.9525 39.3933 33.972 39.217 33.9916 39.0357C34.0062 38.93 34.016 38.8242 34.0307 38.7185C34.0551 38.5371 34.0893 38.3558 34.1186 38.1745L34.1528 37.963C34.1626 37.9076 34.1723 37.8573 34.1821 37.8019L34.2261 37.5148C34.2701 37.2428 34.3091 36.9659 34.3482 36.6939C34.3678 36.5529 34.3873 36.4119 34.402 36.2658C34.4166 36.1298 34.4313 35.9888 34.4557 35.8529C34.4948 35.596 34.5436 35.3442 34.5876 35.0924C34.6218 34.8909 34.6609 34.6945 34.6902 34.4931C34.7195 34.3319 34.7391 34.1708 34.7635 34.0096C34.7781 33.9038 34.7928 33.8031 34.8075 33.7024C34.8368 33.5261 34.8661 33.3448 34.8954 33.1686L34.9589 32.7959L34.9785 32.675C35.0078 32.5038 35.0371 32.3326 35.0566 32.1563C35.0713 32.0253 35.0908 31.8944 35.1006 31.7685C35.1152 31.6275 35.1299 31.4865 35.1543 31.3455C35.169 31.2397 35.1934 31.139 35.213 31.0332C35.2374 30.9123 35.2618 30.7915 35.2814 30.6756C35.3107 30.5195 35.3351 30.3584 35.3546 30.2022C35.3693 30.1166 35.3791 30.031 35.3937 29.9454C35.4279 29.7288 35.4621 29.5123 35.5012 29.2957L35.5452 29.0389L35.5794 28.8324C35.6038 28.6763 35.6331 28.5252 35.6527 28.3691C35.6722 28.2532 35.6869 28.1324 35.7064 28.0165C35.7259 27.8705 35.7504 27.7295 35.7748 27.5834C35.8041 27.4071 35.8383 27.2309 35.8725 27.0546C36.0484 26.1783 35.7015 25.584 35.4817 25.3071C35.1055 24.8437 34.5485 24.5869 33.9427 24.602C33.8548 24.602 33.7668 24.6121 33.6691 24.6272C33.4004 24.6675 33.1317 24.748 32.8581 24.8639C32.3891 25.0653 31.9592 25.2517 31.5439 25.438C31.1922 25.5992 30.8453 25.7603 30.4935 25.9215L29.9415 26.1783C29.5262 26.3697 29.1158 26.5611 28.7006 26.7474C28.3586 26.9035 28.0117 27.0597 27.6648 27.2158L27.1177 27.4625L26.8245 27.5985C26.6438 27.6841 26.4581 27.7698 26.2725 27.8453C26.0086 27.9611 25.7399 28.0719 25.4712 28.1827C25.2905 28.2583 25.1097 28.3338 24.9289 28.4094C24.797 28.4648 24.6651 28.5201 24.5283 28.5806C24.3476 28.6561 24.1668 28.7367 23.986 28.8122C23.8053 28.8828 23.6245 28.9533 23.4437 29.0238C23.3118 29.0741 23.175 29.1245 23.0431 29.1749C22.8868 29.2353 22.7305 29.2957 22.5741 29.3612C22.3396 29.4518 22.11 29.5475 21.8755 29.6332C21.6605 29.7137 21.4456 29.7893 21.2306 29.8648C21.0596 29.9252 20.8935 29.9857 20.7225 30.0461C20.6004 30.0914 20.4734 30.1368 20.3512 30.1871C20.2242 30.2375 20.0972 30.2828 19.9701 30.3281C19.9115 30.3483 19.8529 30.3634 19.7943 30.3785C19.7161 30.3987 19.633 30.4188 19.5549 30.444C19.4718 30.4692 19.3888 30.4943 19.3057 30.5246C19.2666 30.5397 19.2227 30.5497 19.1836 30.5648L18.6999 30.7109C18.2895 30.8368 17.8791 30.9627 17.4639 31.0785C17.2782 31.1289 17.0681 31.1793 16.8483 31.2246C16.7017 31.2598 16.5552 31.2901 16.4086 31.3253C16.2278 31.3706 16.0422 31.416 15.8614 31.4663L15.6904 31.5117L15.4608 31.5469C15.2361 31.5771 15.0113 31.6124 14.7915 31.6426C14.6156 31.6678 14.4397 31.698 14.2639 31.7282C14.0294 31.7685 13.7997 31.8038 13.5652 31.839C13.4675 31.8541 13.3405 31.8591 13.2428 31.8591L12.5686 31.8793C12.0556 31.8944 11.5426 31.9095 11.0296 31.9246C10.6925 31.9347 10.3554 31.9397 10.0183 31.9448C9.80338 31.9448 9.60307 31.9297 9.43697 31.8894C8.92887 31.7735 8.45009 31.562 7.96154 31.2347C7.73681 31.0836 7.49253 30.9073 7.36062 30.731C7.23848 30.5648 7.13589 30.4037 7.05772 30.2476C6.7255 29.5878 6.38352 28.8878 6.04153 28.1626C5.84611 27.7496 5.66046 27.3316 5.46993 26.9136C5.33802 26.6165 5.20122 26.3193 5.06443 26.0222C4.92763 25.72 4.78595 25.4229 4.64427 25.1258C4.44397 24.6977 4.24366 24.2746 4.05313 23.8415C3.75511 23.1767 3.46686 22.512 3.17862 21.8472L2.87083 21.132C2.46533 20.2003 2.05984 19.2737 1.65922 18.342L1.62991 18.2816C1.61525 18.2463 1.59571 18.201 1.58105 18.1657C1.61525 17.9895 1.65922 17.8736 1.70808 17.7981C1.74716 17.7427 1.78625 17.6923 1.83022 17.642M23.6734 17.793L42.3018 8.6322" stroke="#F0AB00" stroke-width="2" stroke-miterlimit="10"/>
    <path d="M16.1304 43.208C16.3711 43.216 16.6019 43.2637 16.8167 43.3453L23.9585 46.3214C24.6031 46.5899 25.0566 47.2265 25.0566 47.9685C25.0566 56.2005 20.0017 60.786 16.8147 62.1149C16.6039 62.2024 16.3691 62.2501 16.1264 62.2501C15.8837 62.2501 15.6529 62.2024 15.4421 62.1149C11.4614 60.4538 7.20215 55.3511 7.20215 47.9685C7.20215 47.2265 7.65771 46.5879 8.30425 46.3214L15.4441 43.3453C15.6589 43.2637 15.8897 43.216 16.1304 43.208Z" stroke="black" stroke-width="2"/>
</svg>
