<svg width="96" height="96" viewBox="0 0 96 96" fill="none" xmlns="http://www.w3.org/2000/svg">
    <path d="M70.3317 78.6841C71.419 78.4634 72.9407 78.2974 74.69 78.2087C76.4393 78.12 78.3314 78.1128 80.1093 78.1882C81.8871 78.2636 83.4645 78.4178 84.6271 78.63C85.7898 78.8422 86.4813 79.102 86.6078 79.3741C86.7343 79.6463 86.2895 79.9176 85.334 80.1511C84.3785 80.3847 82.9586 80.5693 81.2671 80.6797C79.5756 80.7901 77.6946 80.8211 75.8796 80.7684C74.0645 80.7157 72.4035 80.5819 71.1222 80.3851" stroke="#F0AB00" stroke-width="2" stroke-linecap="round" stroke-linejoin="round"/>
    <path d="M79.0858 79.7677C78.6545 79.8131 78.1371 79.8374 77.6072 79.837C77.0772 79.8366 76.5616 79.8116 76.1334 79.7655" stroke="#F0AB00" stroke-width="2" stroke-linecap="round" stroke-linejoin="round"/>
    <path d="M86.6289 79.4395V82.8692C86.6289 83.2215 85.6797 83.5594 83.9902 83.8086C82.3007 84.0577 80.0093 84.1977 77.6199 84.1977C75.7504 84.1977 73.9407 84.112 72.4325 83.9554" stroke="#F0AB00" stroke-width="2" stroke-linecap="round" stroke-linejoin="round"/>
    <path d="M77.62 79.404L77.62 20.3633" stroke="#F0AB00" stroke-width="2" stroke-linecap="round" stroke-linejoin="round"/>
    <path d="M29.9715 76.0839C27.7868 76.6539 22.6575 76.6539 19.6179 72.0945C15.8184 66.3952 10.3091 54.8067 8.40936 47.9676C6.88956 42.4963 4.79984 33.5295 3.94496 29.73C3.19054 26.7873 2.77135 20.9516 7.12994 21.1497C12.5782 21.3974 20.5855 23.1309 26.3639 22.8833C30.9867 22.6852 38.5262 21.645 41.7181 21.1497C44.3872 20.3242 49.7584 20.3738 49.8904 27.1758C49.8904 28.8429 49.9676 29.5631 49.6075 30.3733C49.8904 31.1384 50.6427 35.8194 49.6075 42.6159C50.9128 45.3615 51.5879 50.4926 51.4529 53.2382C52.6051 54.7145 54.0334 56.4939 54.6035 57.199C55.0386 58.0092 56.593 59.3235 59.3296 58.0992C62.7503 56.5689 71.8422 52.518 74.9029 58.4143C77.3514 63.1313 73.8827 67.5213 71.8422 69.1266L67.9714 71.5571" stroke="black" stroke-width="2" stroke-linecap="round" stroke-linejoin="round"/>
    <path d="M3.47033 26.2354C7.81942 22.958 9.4965 38.9443 10.1647 42.988C11.3298 50.0396 14.0202 64.7645 19.9148 64.1428C24.3344 63.4233 22.6289 58.0668 30.7637 58.343C39.8539 58.9923 48.698 64.092 57.9884 61.2088C63.9246 59.3665 65.9116 54.6985 70.7866 55.451" stroke="black" stroke-width="2" stroke-linecap="round" stroke-linejoin="round"/>
    <path d="M8.49393 32.5563C9.79083 31.5991 13.456 30.1101 18.7177 31.5922C25.2949 33.445 35.207 33.445 39.9315 31.5922C43.7111 30.11 48.0526 30.2335 49.751 30.4805" stroke="black" stroke-width="2" stroke-linecap="round" stroke-linejoin="round"/>
    <path d="M10.9363 44.6625C12.1493 43.7672 15.8055 42.3233 20.7266 43.7095C26.8781 45.4423 36.1485 45.4423 40.5672 43.7095C44.1021 42.3232 48.1626 42.4387 49.751 42.6698" stroke="black" stroke-width="2" stroke-linecap="round" stroke-linejoin="round"/>
    <path d="M13.7877 56.9518C14.9277 56.0208 18.424 54.438 23.2891 55.5547C29.3705 56.9505 38.4105 56.5077 42.6366 54.6068C46.0174 53.0861 49.9825 53.0047 51.5425 53.1541" stroke="black" stroke-width="2" stroke-linecap="round" stroke-linejoin="round"/>
    <path d="M34.8254 75.9752C41.5423 76.2634 56.6651 76.1215 63.4219 73.2485" stroke="black" stroke-width="2" stroke-linecap="round" stroke-linejoin="round"/>
    <path d="M32.084 91.742L30.1122 74.9534C29.9909 73.9205 30.6087 72.9436 31.5938 72.6104C32.9997 72.1349 34.4639 73.1579 34.5009 74.6416L34.922 91.5404C34.942 92.3406 34.2988 93 33.4984 93C32.7762 93 32.1683 92.4593 32.084 91.742Z" stroke="black" stroke-width="2" stroke-linecap="round" stroke-linejoin="round"/>
    <path d="M23.153 75.2892L17.2126 86.1972C16.8298 86.9002 15.943 87.1496 15.2499 86.7494C14.6244 86.3883 14.3683 85.6162 14.654 84.9528L19.9902 72.563" stroke="black" stroke-width="2" stroke-linecap="round" stroke-linejoin="round"/>
    <path d="M73.2306 86.3276L67.2262 70.526C66.8568 69.5538 65.8577 68.9726 64.83 69.1321C63.3634 69.3596 62.5372 70.9432 63.1896 72.2763L70.6203 87.4595C70.9721 88.1784 71.8472 88.4662 72.5571 88.0966C73.1977 87.763 73.4872 87.0028 73.2306 86.3276Z" stroke="black" stroke-width="2" stroke-linecap="round" stroke-linejoin="round"/>
    <path d="M73.2306 86.3276L67.2262 70.526C66.8568 69.5538 65.8577 68.9726 64.83 69.1321C63.3634 69.3596 62.5372 70.9432 63.1896 72.2763L70.6203 87.4595C70.9721 88.1784 71.8472 88.4662 72.5571 88.0966C73.1977 87.763 73.4872 87.0028 73.2306 86.3276Z" stroke="black" stroke-width="2" stroke-linecap="round" stroke-linejoin="round"/>
    <path d="M50.6889 76.0455L50.4097 83.296C50.3787 84.1008 51.0071 84.7779 51.812 84.807V84.807C52.5494 84.8336 53.1901 84.3043 53.3032 83.5752L54.5867 75.3013" stroke="black" stroke-width="2" stroke-linecap="round" stroke-linejoin="round"/>
    <ellipse cx="77.8675" cy="20.7864" rx="14.6663" ry="1.63991" stroke="#F0AB00" stroke-width="2" stroke-linecap="round" stroke-linejoin="round"/>
    <path d="M63.2058 20.7453L64.1384 6.41792C64.1384 5.51143 65.5848 4.64207 68.1595 4.00109C70.7342 3.3601 74.2263 3 77.8675 3C81.5087 3 85.0007 3.3601 87.5754 4.00109C90.1501 4.64207 91.5966 5.51143 91.5966 6.41792L92.4509 20.7453" stroke="#F0AB00" stroke-width="2" stroke-linecap="round" stroke-linejoin="round"/>
    <path d="M79.1376 19.1464C79.1376 19.2913 79.0984 19.4348 79.0221 19.5687C78.9458 19.7026 78.834 19.8243 78.6931 19.9268C78.5522 20.0293 78.3849 20.1106 78.2007 20.166C78.0166 20.2215 77.8193 20.25 77.6199 20.25C77.4206 20.25 77.2233 20.2215 77.0391 20.166C76.855 20.1106 76.6877 20.0293 76.5468 19.9268C76.4058 19.8243 76.294 19.7026 76.2178 19.5687C76.1415 19.4348 76.1022 19.2913 76.1022 19.1464L77.6199 19.1464H79.1376Z" stroke="#F0AB00" stroke-width="2" stroke-linecap="round" stroke-linejoin="round"/>
</svg>
