<svg width="104" height="104" viewBox="0 0 104 104" fill="none" xmlns="http://www.w3.org/2000/svg">
    <circle cx="52" cy="52.4204" r="50" stroke="#F0AB00" stroke-width="3"/>
    <path d="M30.1081 58.9589L30.0136 58.5521L35.6385 55.6126L34.6737 51.3649C34.0536 48.6348 33.0213 46.0131 31.6118 43.5886L30.0136 40.8396L20.8163 42.6485C15.3921 67.3566 37.8594 89.2234 62.6986 83.5003L64.3632 74.1616L58.5728 71.2908C57.5226 70.7701 56.3975 70.4135 55.2374 70.2338L49.1212 69.2862L46.2801 74.9078L43.4223 73.8788C36.7203 71.4656 31.7081 65.849 30.1081 58.9589Z" stroke="black" stroke-width="2" stroke-linecap="round" stroke-linejoin="round"/>
    <path d="M68.8981 79.0976C73.0129 76.5604 76.4928 73.1298 79.0755 69.0645C81.6581 64.9992 83.276 60.4054 83.8072 55.6297C84.3383 50.854 83.7688 46.021 82.1416 41.4954C80.5144 36.9697 77.8719 32.8696 74.4137 29.5043C70.9554 26.1389 66.7716 23.5963 62.1778 22.0681C57.584 20.54 52.7002 20.0662 47.8948 20.6826C43.0895 21.299 38.488 22.9894 34.4375 25.6263C30.3871 28.2633 26.9934 31.7779 24.5126 35.905" stroke="black" stroke-width="2" stroke-linecap="round" stroke-linejoin="round"/>
    <path d="M40.4389 57.5282C40.0717 57.5282 39.8021 57.4486 39.63 57.2893C39.4693 57.1186 39.389 56.874 39.389 56.5554C39.389 56.362 39.4407 56.1742 39.5439 55.9922C39.6472 55.8102 39.7964 55.6167 39.9914 55.4119L43.4509 51.7597C43.9787 51.2135 44.3574 50.7186 44.5868 50.2749C44.8163 49.8198 44.9311 49.3646 44.9311 48.9095C44.9311 48.3406 44.7475 47.9083 44.3803 47.6125C44.0246 47.3166 43.5025 47.1687 42.8141 47.1687C42.4239 47.1687 42.0338 47.2256 41.6437 47.3394C41.2536 47.4418 40.8577 47.6238 40.4561 47.8855C40.2496 48.0221 40.0545 48.079 39.8709 48.0562C39.6988 48.0334 39.5439 47.9595 39.4062 47.8343C39.28 47.7092 39.194 47.5556 39.1481 47.3735C39.1022 47.1915 39.1079 47.0094 39.1653 46.8274C39.2341 46.634 39.3718 46.469 39.5783 46.3325C40.0717 46.0025 40.6225 45.7522 41.2306 45.5815C41.8502 45.4109 42.4698 45.3255 43.0895 45.3255C43.9615 45.3255 44.6958 45.4564 45.2925 45.7181C45.8892 45.9798 46.3424 46.3609 46.6522 46.8615C46.962 47.3622 47.1169 47.9709 47.1169 48.6877C47.1169 49.1655 47.0366 49.632 46.8759 50.0871C46.7268 50.5422 46.4916 51.003 46.1703 51.4695C45.8605 51.936 45.4531 52.431 44.9483 52.9543L41.7125 56.2994V55.7191H46.7727C47.0825 55.7191 47.3177 55.7931 47.4783 55.941C47.639 56.0889 47.7193 56.3108 47.7193 56.6066C47.7193 56.9024 47.639 57.13 47.4783 57.2893C47.3177 57.4486 47.0825 57.5282 46.7727 57.5282H40.4389Z" fill="#F0AB00"/>
    <path d="M55.5781 57.6647C55.2339 57.6647 54.9643 57.5737 54.7692 57.3917C54.5742 57.1982 54.4766 56.9252 54.4766 56.5725V55.2413H50.2254C49.8697 55.2413 49.5829 55.1673 49.3649 55.0194C49.1583 54.8715 49.0551 54.6382 49.0551 54.3197C49.0551 54.1376 49.101 53.9385 49.1927 53.7223C49.296 53.5062 49.4739 53.2217 49.7263 52.869L54.4422 46.0935C54.6028 45.8546 54.7807 45.6726 54.9757 45.5474C55.1708 45.4222 55.3946 45.3597 55.647 45.3597C55.9453 45.3597 56.192 45.4507 56.3871 45.6327C56.5821 45.8034 56.6797 46.0765 56.6797 46.4519V53.4322H57.523C57.8558 53.4322 58.1025 53.5118 58.2631 53.6711C58.4352 53.819 58.5213 54.0409 58.5213 54.3367C58.5213 54.6326 58.4352 54.8601 58.2631 55.0194C58.1025 55.1673 57.8558 55.2413 57.523 55.2413H56.6797V56.5725C56.6797 56.9252 56.5821 57.1982 56.3871 57.3917C56.192 57.5737 55.9224 57.6647 55.5781 57.6647ZM54.4766 53.4322V48.1074H54.9757L50.9139 54.0125V53.4322H54.4766Z" fill="#F0AB00"/>
    <path d="M60.3045 58.0231C60.2357 58.2393 60.1267 58.3929 59.9775 58.4839C59.8284 58.5863 59.662 58.6375 59.4784 58.6375C59.3063 58.6375 59.1456 58.592 58.9965 58.501C58.8473 58.41 58.744 58.2791 58.6867 58.1085C58.6178 57.9492 58.6178 57.7558 58.6867 57.5282L62.6625 45.2914C62.7313 45.0752 62.8403 44.9159 62.9895 44.8135C63.1501 44.7111 63.3165 44.6656 63.4886 44.677C63.6607 44.677 63.8214 44.7225 63.9705 44.8135C64.1197 44.9046 64.223 45.0297 64.2803 45.189C64.3492 45.3483 64.3492 45.5417 64.2803 45.7693L60.3045 58.0231Z" fill="#F0AB00"/>
    <path d="M67.1456 57.6647C66.8817 57.6647 66.6637 57.6022 66.4916 57.477C66.3195 57.3518 66.2162 57.1869 66.1818 56.9821C66.1474 56.7659 66.199 56.527 66.3367 56.2653L71.5345 46.5714V47.3223H65.958C65.6482 47.3223 65.4073 47.2427 65.2352 47.0834C65.0745 46.9241 64.9942 46.7022 64.9942 46.4178C64.9942 46.122 65.0745 45.8944 65.2352 45.7351C65.4073 45.5758 65.6482 45.4962 65.958 45.4962H72.6188C72.9286 45.4962 73.1811 45.5758 73.3761 45.7351C73.5712 45.8944 73.6687 46.122 73.6687 46.4178C73.6687 46.6681 73.6343 46.89 73.5655 47.0834C73.4966 47.2654 73.4048 47.4646 73.2901 47.6807L68.4021 56.9479C68.2758 57.1982 68.1095 57.3803 67.9029 57.4941C67.7079 57.6078 67.4554 57.6647 67.1456 57.6647Z" fill="#F0AB00"/>
</svg>
