<svg width="64" height="65" viewBox="0 0 64 65" fill="none" xmlns="http://www.w3.org/2000/svg">
    <circle cx="32.0005" cy="32.2949" r="32" fill="white"/>
    <path d="M39.177 38.4861C43.4225 39.0371 46.952 40.0594 49.1568 41.3767C51.3616 42.6939 52.1037 44.2236 51.255 45.702C50.4063 47.1803 48.02 48.5147 44.5077 49.475C40.9953 50.4353 36.577 50.9614 32.0146 50.9625C27.4521 50.9636 23.0314 50.4397 19.5148 49.4811C15.9982 48.5225 13.606 47.1892 12.7507 45.7113C11.8954 44.2334 12.6307 42.7033 14.8297 41.385C17.0286 40.0666 20.5535 39.0427 24.7966 38.4896" stroke="black" stroke-width="2" stroke-linecap="round" stroke-linejoin="round"/>
    <path d="M36.9514 41.3852C38.5055 41.7336 39.6812 42.2367 40.3065 42.8211C40.9319 43.4055 40.9743 44.0405 40.4274 44.6334C39.8805 45.2262 38.7731 45.7459 37.2669 46.1164C35.7608 46.487 33.9348 46.689 32.0557 46.6929C30.1766 46.6969 28.3429 46.5026 26.8226 46.1384C25.3022 45.7742 24.1748 45.2592 23.6051 44.6687C23.0353 44.0782 23.0532 43.443 23.6559 42.8561C24.2587 42.2691 25.4147 41.7611 26.9553 41.4062" stroke="black" stroke-width="2" stroke-linecap="round"/>
    <path d="M43.0601 25.627C42.8932 27.674 42.1614 29.6347 40.9463 31.2905L31.9656 43.5838L23.0955 31.3463C21.87 29.6981 21.126 27.7421 20.9464 25.6961C20.7667 23.6501 21.1584 21.5944 22.0778 19.7578C22.9973 17.9212 24.4085 16.3759 26.1542 15.2938C27.8999 14.2117 29.9117 13.6354 31.9656 13.629C34.0195 13.6225 36.0348 14.1863 37.7873 15.2574C39.5397 16.3285 40.9605 17.865 41.8915 19.6958C42.8224 21.5266 43.2269 23.5799 43.0601 25.627Z" stroke="black" stroke-width="2" stroke-linecap="round" stroke-linejoin="round"/>
    <circle cx="32.0006" cy="24.6739" r="3.93174" stroke="black" stroke-width="2" stroke-linecap="round" stroke-linejoin="round"/>
</svg>
