<svg width="48" height="49" viewBox="0 0 48 49" fill="none" xmlns="http://www.w3.org/2000/svg">
    <path d="M24 0.294922C17.6362 0.294922 11.5275 2.82617 7.03125 7.32617C2.53125 11.8224 0 17.9312 0 24.2949C0 30.6587 2.53125 36.7674 7.03125 41.2674C11.5275 45.7674 17.6362 48.2949 24 48.2949C30.3638 48.2949 36.4725 45.7637 40.9688 41.2637C45.4688 36.7637 48 30.6549 48 24.2949C48 17.9349 45.4688 11.8224 40.9688 7.32242C36.4725 2.82617 30.3638 0.294922 24 0.294922Z" fill="url(#paint0_linear_981_66151)"/>
    <path d="M10.8637 24.0402C17.8612 20.9915 22.5262 18.9815 24.8587 18.0102C31.5262 15.239 32.9099 14.7552 33.8137 14.7402C34.0124 14.7402 34.4549 14.7852 34.7437 15.0177C34.9837 15.2165 35.0512 15.4827 35.0849 15.6665C35.1149 15.854 35.1562 16.2777 35.1224 16.6115C34.7624 20.4065 33.1987 29.6165 32.4037 33.8652C32.0699 35.6652 31.4062 36.2652 30.7649 36.3252C29.3699 36.4527 28.3124 35.4027 26.9624 34.5177C24.8512 33.134 23.6587 32.2715 21.6074 30.9215C19.2374 29.3615 20.7749 28.5027 22.1249 27.1002C22.4774 26.7327 28.6199 21.149 28.7362 20.6427C28.7512 20.579 28.7662 20.3427 28.6237 20.219C28.4849 20.0952 28.2787 20.1365 28.1287 20.1702C27.9149 20.219 24.5437 22.4502 18.0037 26.8602C17.0474 27.5165 16.1812 27.839 15.4012 27.8202C14.5462 27.8015 12.8962 27.3365 11.6699 26.939C10.1699 26.4515 8.97369 26.1927 9.07869 25.3602C9.13119 24.929 9.72744 24.4865 10.8637 24.0327V24.0402Z" fill="white"/>
    <defs>
        <linearGradient id="paint0_linear_981_66151" x1="24" y1="0.294922" x2="24" y2="48.2949" gradientUnits="userSpaceOnUse">
            <stop stop-color="#2AABEE"/>
            <stop offset="1" stop-color="#229ED9"/>
        </linearGradient>
    </defs>
</svg>
