<svg width="88" height="81" viewBox="0 0 88 81" fill="none" xmlns="http://www.w3.org/2000/svg">
    <path d="M28.0548 1.20979C28.2911 1.20979 28.5557 1.2664 28.8912 1.38905C28.9432 1.42207 29.0613 1.52114 29.1511 1.5919C29.2409 1.66738 29.3307 1.73815 29.4205 1.81362C29.5102 1.88439 29.6048 1.96458 29.6993 2.06365C29.9025 2.2665 30.0915 2.50238 30.2569 2.70995C30.2805 2.76184 30.3183 2.86562 30.3419 2.92695C30.5026 3.36567 30.5876 3.89403 30.6774 4.45069C30.7672 5.01207 30.8523 5.57345 30.9326 6.13955C30.9893 6.5311 31.046 6.91793 31.1074 7.30948C31.2965 8.54074 31.4902 9.77201 31.6887 10.9986C31.7265 11.2391 31.7785 11.4467 31.8257 11.6307C31.8493 11.7203 31.873 11.81 31.8919 11.9043C31.9958 12.4327 32.2416 12.9044 32.6101 13.2677C32.8653 13.5224 33.1772 13.7253 33.5316 13.8668C33.8482 13.9941 34.1648 14.1262 34.4861 14.2536C34.8311 14.3951 35.176 14.5367 35.521 14.6782C36.1495 14.9282 36.778 15.1688 37.4065 15.4141L37.7325 15.5415C37.9357 15.6217 38.1389 15.6972 38.3421 15.7774C38.5831 15.8717 38.8288 15.9613 39.0698 16.0557L40.1 16.452L41.1112 16.8435C41.7444 17.0888 42.3729 17.3341 43.0108 17.5747C43.5826 17.7917 44.1591 18.004 44.7356 18.2163L45.4633 18.4852C45.5295 18.5088 45.6476 18.5559 45.8036 18.589C45.9642 18.6267 46.1249 18.6456 46.2903 18.6456C46.862 18.6456 47.4007 18.405 47.7788 17.9898C48.1568 17.57 48.3411 16.9945 48.2797 16.4189C48.2561 16.1831 48.2135 15.9425 48.1568 15.683L48.0718 15.2962C47.9064 14.5367 47.7363 13.7724 47.5614 13.0129C47.2921 11.8618 47.018 10.7108 46.7392 9.56444C46.6258 9.09741 46.5124 8.63509 46.399 8.16806C46.2241 7.45573 46.0493 6.7481 45.8839 6.03577C45.6949 5.23379 45.52 4.45541 45.4161 3.67703C45.4066 3.60627 45.4019 3.52135 45.4539 3.40813C46.0398 3.52607 46.6447 3.71949 47.1692 3.89403C47.3015 3.93649 47.4716 4.01669 47.6512 4.09688C47.8071 4.16764 47.9678 4.24312 48.1285 4.30917C48.5349 4.47428 48.9365 4.83753 49.4043 5.25738C49.5319 5.37532 49.6642 5.48854 49.7918 5.60647C49.8863 5.71498 49.9808 5.81876 50.0753 5.92726C50.3589 6.24805 50.6282 6.54525 50.8739 6.85189C51.0299 7.04531 51.1811 7.24344 51.2425 7.38968C51.3418 7.63027 51.4599 7.81425 51.5355 7.93691L51.5686 7.99352L51.7245 8.25298C51.8285 8.42281 51.9277 8.59736 52.027 8.76718C52.1215 8.9323 52.2065 9.09741 52.2963 9.26252L52.3908 9.44178C52.5467 9.72955 52.7027 10.022 52.8539 10.3098L53.0665 10.7108C53.2083 10.9797 53.3453 11.2439 53.4918 11.508C53.5769 11.659 53.6667 11.81 53.7517 11.9609C53.8132 12.0647 53.8793 12.1685 53.936 12.277C54.0022 12.3996 54.0683 12.527 54.1298 12.6544C54.1912 12.7723 54.2479 12.895 54.3141 13.0129C54.4133 13.2016 54.5173 13.3903 54.6212 13.579L54.7299 13.7819L54.8906 14.0791C54.9851 14.2536 55.0843 14.4282 55.1788 14.6027C55.3253 14.8763 55.4765 15.1499 55.6183 15.4283C55.675 15.5368 55.7317 15.65 55.7884 15.7585C55.864 15.9047 55.9396 16.0557 56.0152 16.2019C56.1003 16.3623 56.1901 16.5227 56.2751 16.6784L56.4169 16.9379C56.5586 17.202 56.7051 17.4662 56.8469 17.7304C56.9319 17.8861 57.0123 18.0465 57.0973 18.2021L57.258 18.5135L57.3572 18.7022C57.4754 18.9286 57.5982 19.1598 57.7211 19.3862C57.7825 19.4994 57.8487 19.6127 57.9148 19.7259C57.9479 19.7778 57.9763 19.8344 58.0093 19.8863C58.0708 19.9901 58.1275 20.0986 58.1842 20.2071L58.274 20.3769C58.4583 20.726 58.6473 21.0704 58.8269 21.4195C58.9072 21.5751 58.9922 21.7355 59.0726 21.8912C59.1907 22.1176 59.3088 22.3488 59.4317 22.5752C59.5829 22.8583 59.7436 23.1366 59.8759 23.3678C59.9799 23.5518 60.1122 23.7169 60.2634 23.8678C60.6461 24.2499 61.062 24.4151 61.2888 24.5047L61.3408 24.5236C61.733 24.6839 62.1299 24.8396 62.5269 24.9953L62.7631 25.0849L63.9256 25.5331C64.4029 25.7171 64.8801 25.9011 65.3574 26.0898C65.6268 26.1935 66.8176 26.6653 67.1483 26.7927C67.5217 26.9389 67.8902 27.0757 68.2635 27.2172L68.6699 27.3729L69.2086 27.5758C69.4638 27.6701 69.719 27.7692 69.9742 27.8635L70.286 27.9815C70.716 28.1466 71.1461 28.307 71.5761 28.4768C71.784 28.557 71.9966 28.6419 72.2046 28.7268C72.4456 28.8259 72.6866 28.9202 72.9276 29.0146C73.2111 29.1231 73.4946 29.2316 73.7829 29.3354C73.9908 29.4109 74.1987 29.4911 74.4019 29.5665C74.8414 29.7364 75.2808 29.9062 75.7203 30.0807C76.2637 30.2977 76.7032 30.4817 77.1001 30.6516C77.256 30.7176 77.412 30.7931 77.5679 30.8638C77.8231 30.9818 78.0925 31.1044 78.3807 31.2177C78.6548 31.3262 78.9572 31.5007 79.2785 31.6847L79.5006 31.8121C79.5857 31.8592 79.6991 31.9394 79.8172 32.0243C79.8834 32.0715 79.9495 32.114 80.0157 32.1611L80.1197 32.2319C80.2756 32.3357 80.4315 32.4442 80.5828 32.5527L80.8096 32.7131C81.0317 32.8735 81.2443 33.0244 81.4192 33.1707C81.6743 33.3877 81.9342 33.633 82.2367 33.9396L82.3217 34.0245C82.6052 34.3076 82.9029 34.6095 83.1723 34.9162C83.3471 35.1143 83.5173 35.3454 83.7063 35.5907L83.8386 35.7653C84.0465 36.0389 84.2166 36.2654 84.3631 36.4918C84.5616 36.7984 84.7506 37.1192 84.9302 37.4258C84.9963 37.5391 85.0672 37.6806 85.1381 37.8268L85.2042 37.9636C85.4311 38.4165 85.6201 38.9449 85.7902 39.6195C85.9934 40.4262 86.0643 41.1951 86.0076 41.9688C85.9887 42.2141 85.9367 42.4311 85.8563 42.6151C85.8563 42.6151 85.8563 42.6151 85.8516 42.6151C85.535 42.733 85.1806 42.7896 84.7742 42.7896C84.571 42.7896 84.3584 42.7755 84.1221 42.7472C83.333 42.6528 82.5769 42.5207 81.8728 42.3509C80.9608 42.1292 79.7605 41.832 78.5603 41.497C77.5443 41.214 76.4433 40.8885 75.0871 40.4733C74.4302 40.2705 73.7545 40.0488 73.1024 39.8318C72.7952 39.7327 72.4881 39.6289 72.1809 39.5298C71.9305 39.4496 71.6848 39.3694 71.4343 39.2893C70.9098 39.1194 70.3853 38.9543 69.8655 38.775C69.3315 38.5911 68.7975 38.4024 68.2635 38.209C67.9328 38.091 67.6067 37.9731 67.2759 37.8551C67.0066 37.7608 66.7372 37.6664 66.4632 37.5768C66.1938 37.4825 65.9245 37.3928 65.6551 37.2985C65.2771 37.1664 64.899 37.0296 64.521 36.8928L63.8783 36.6616L63.8169 36.638C63.6562 36.5767 63.3916 36.4682 63.0514 36.421C62.9333 36.4069 62.8104 36.3974 62.6875 36.3974C62.3662 36.3974 62.0401 36.454 61.7472 36.5626C60.9486 36.8503 60.1547 37.1475 59.3561 37.44L58.9261 37.6004C58.0472 37.9259 57.1635 38.2561 56.2846 38.5863C56.0294 38.6807 55.7789 38.775 55.5238 38.8741C55.1505 39.0156 54.7772 39.1572 54.4038 39.294C54.0305 39.4308 53.6525 39.5676 53.2745 39.6997C52.9059 39.8318 52.5373 39.9638 52.1687 40.0959C51.7907 40.2327 51.4174 40.3743 51.0393 40.5158C50.6755 40.6526 50.3116 40.7894 49.943 40.9215C49.5366 41.0725 49.1255 41.2187 48.7191 41.3649C48.3128 41.5112 47.9111 41.6574 47.5047 41.8037C47.2117 41.9122 46.9188 42.0207 46.6258 42.1339C46.3423 42.2424 46.0587 42.3509 45.7752 42.4547C45.3877 42.5962 45.0002 42.733 44.6127 42.8745C44.2583 43.0019 43.9039 43.1293 43.5448 43.2566C43.2518 43.3651 42.9588 43.4737 42.6706 43.5822C42.302 43.719 41.9334 43.8558 41.5601 43.9926C41.097 44.1577 40.6339 44.3181 40.1708 44.4785C39.9062 44.5681 39.6463 44.6625 39.3817 44.7521C39.1643 44.8276 38.9469 44.903 38.7296 44.9832C38.4177 45.0965 38.1011 45.205 37.7892 45.3135C36.9292 45.6107 36.1164 45.889 35.3036 46.04C34.8358 46.1296 34.3018 46.1768 33.6261 46.1909C33.5836 46.1909 33.5363 46.1909 33.4938 46.1909C33.1299 46.1909 32.8417 46.1579 32.5818 46.0919C31.958 45.9267 31.3012 45.7428 30.72 45.488L30.4034 45.3512C30.1104 45.2238 29.8316 45.1059 29.5811 44.9785C29.5622 44.9691 29.5386 44.9549 29.5197 44.9408C29.5859 44.8087 29.7276 44.6294 30.0868 44.3936C30.1387 44.3605 30.186 44.3275 30.238 44.2898L30.6491 43.9879C30.9279 43.785 31.202 43.5774 31.4855 43.3793C31.8824 43.0963 32.2841 42.8132 32.6857 42.5302L33.0165 42.299L33.163 42.1952C33.4324 42.0065 33.7017 41.8178 33.9758 41.6291C34.1459 41.5112 34.316 41.398 34.4909 41.2847C34.7082 41.1432 34.9256 40.997 35.1382 40.8507C35.2895 40.747 35.4359 40.6384 35.5777 40.5299C35.6628 40.4639 35.7525 40.3979 35.8423 40.3365C35.9935 40.228 36.1495 40.1242 36.3054 40.0205L36.4897 39.8978C36.537 39.8695 36.5842 39.8365 36.6315 39.8082L36.8725 39.6431C37.104 39.4827 37.3356 39.3223 37.5671 39.1619C37.6853 39.077 37.8034 38.9921 37.9215 38.9024C38.0349 38.8175 38.1483 38.7326 38.2665 38.6524C38.4839 38.5062 38.7012 38.3599 38.9233 38.2184C39.0934 38.1052 39.2683 37.9919 39.4384 37.8787C39.5754 37.7844 39.7125 37.69 39.8495 37.5957C39.9346 37.5343 40.0243 37.473 40.1094 37.4117C40.2606 37.3079 40.4118 37.2041 40.563 37.1051L40.8844 36.8881L40.9836 36.8173C41.1301 36.7182 41.2766 36.6192 41.4231 36.5154C41.5318 36.4352 41.6357 36.3597 41.7444 36.2795C41.8578 36.1946 41.976 36.105 42.0941 36.02C42.1839 35.9587 42.2737 35.9021 42.3682 35.8455C42.4721 35.7794 42.5808 35.7134 42.6848 35.6474C42.8218 35.5577 42.9541 35.4634 43.0864 35.3737C43.1573 35.3219 43.2282 35.2747 43.3038 35.2228C43.4881 35.0954 43.6724 34.9728 43.8614 34.8454L44.0835 34.6944L44.2583 34.5765C44.3906 34.4869 44.523 34.3972 44.6553 34.3076C44.7545 34.2368 44.8537 34.1708 44.953 34.1C45.0758 34.0151 45.1987 33.9302 45.3216 33.8453C45.4728 33.7415 45.6287 33.6472 45.7847 33.5481C46.5596 33.0669 46.7439 32.3876 46.7864 32.0243C46.8573 31.4158 46.64 30.8119 46.1958 30.3685C46.1296 30.3025 46.0587 30.2411 45.9831 30.1798C45.761 30.0053 45.5058 29.8543 45.2223 29.7269C44.7356 29.5099 44.2867 29.3165 43.8472 29.1372C43.4739 28.9816 43.1053 28.8353 42.732 28.6844L42.1413 28.4485C41.7019 28.2692 41.2624 28.09 40.8229 27.9107C40.4591 27.7597 40.0952 27.6088 39.7314 27.4578L39.1549 27.2172L38.843 27.0899C38.6492 27.0097 38.4555 26.9295 38.2618 26.8493C37.9877 26.7266 37.7089 26.604 37.4348 26.4766C37.2505 26.3917 37.0615 26.3068 36.8772 26.2266C36.7402 26.1652 36.6031 26.1039 36.4661 26.0426C36.2771 25.9624 36.0881 25.8775 35.9038 25.7926C35.7195 25.7076 35.5399 25.618 35.3556 25.5284C35.2233 25.4623 35.0863 25.3963 34.954 25.3302C34.798 25.2548 34.6373 25.1793 34.4767 25.1038C34.2404 24.9906 34.0041 24.8821 33.7679 24.7641C33.5552 24.6604 33.3426 24.5471 33.1299 24.4386C32.9645 24.3537 32.7992 24.2641 32.6338 24.1839C32.5109 24.1226 32.388 24.0612 32.2605 23.9999C32.1329 23.9386 32.0053 23.8773 31.8824 23.8112C31.8257 23.7829 31.7737 23.7452 31.717 23.7121C31.6414 23.665 31.5705 23.6225 31.4949 23.5753C31.4193 23.5282 31.339 23.4857 31.2587 23.4432C31.2209 23.4197 31.1783 23.4008 31.1405 23.3772L30.6822 23.113C30.2899 22.8913 29.9025 22.6696 29.515 22.4337C29.3401 22.3299 29.1558 22.2026 28.9621 22.0752C28.8345 21.9856 28.7022 21.9006 28.5699 21.8157C28.4045 21.7072 28.2391 21.6034 28.069 21.4996L27.9083 21.4006L27.7146 21.2496C27.5303 21.1034 27.346 20.9571 27.157 20.8109C27.0105 20.6977 26.864 20.5845 26.7128 20.4712C26.519 20.3203 26.3206 20.174 26.1268 20.0231C26.0465 19.957 25.952 19.8674 25.8764 19.7919L25.3755 19.2966C24.9927 18.9192 24.61 18.5418 24.2319 18.1644C23.9815 17.9144 23.731 17.6643 23.4853 17.4096C23.3294 17.2492 23.1971 17.0841 23.1026 16.9331C22.819 16.4708 22.63 15.9566 22.5166 15.3575C22.4646 15.0839 22.4174 14.7725 22.4504 14.5508C22.4835 14.3385 22.5308 14.1498 22.5828 13.9847C22.8238 13.2724 23.0931 12.5223 23.3814 11.7581C23.5467 11.3193 23.7169 10.8853 23.887 10.4513C24.0098 10.14 24.1327 9.82862 24.2508 9.51726C24.3737 9.20119 24.4918 8.88512 24.61 8.56905C24.7801 8.12089 24.9455 7.66801 25.125 7.22457C25.3991 6.53582 25.6779 5.84707 25.9567 5.16303L26.2544 4.42711C26.6466 3.46946 27.0341 2.51181 27.4263 1.55416L27.4547 1.48812C27.4689 1.45038 27.4878 1.40792 27.5067 1.36546C27.6626 1.27112 27.776 1.21922 27.8658 1.20507C27.932 1.19564 28.0028 1.19092 28.069 1.19092M43.7527 17.8436L63.9256 25.5331" stroke="#F0AB00" stroke-width="2" stroke-miterlimit="10" stroke-linejoin="round"/>
    <path d="M13.925 79.6503V58.9136" stroke="black" stroke-width="2" stroke-linecap="round" stroke-linejoin="round"/>
    <path d="M6.7012 48.0876V79.3453" stroke="black" stroke-width="2" stroke-linecap="round" stroke-linejoin="round"/>
    <path d="M21.1484 48.0874V79.345" stroke="black" stroke-width="2" stroke-linecap="round" stroke-linejoin="round"/>
    <path d="M21.6444 48.0874C24.2873 45.6479 29.6343 38.6342 29.8783 30.0953C29.8783 27.8464 28.3143 26.4648 26.7882 25.7176C25.7771 25.2225 24.7053 25.982 24.5341 27.0948L24.3776 28.1118C23.8861 31.3066 22.5434 34.31 20.4906 36.8068L18.5851 39.1242C18.2052 39.5862 17.6385 39.854 17.0403 39.854H7.46401C5.63423 39.854 1.97467 41.2872 1.97467 47.0204C1.97467 49.3288 1.97467 51.1709 1.97467 52.5944C1.97467 54.9813 2.92287 57.2697 4.61068 58.9575L6.70141 61.0483" stroke="black" stroke-width="2" stroke-linecap="round" stroke-linejoin="round"/>
    <circle cx="12.3878" cy="30.6002" r="5.6866" stroke="black" stroke-width="2" stroke-linecap="round" stroke-linejoin="round"/>
    <rect x="30.54" y="60.2402" width="27.0557" height="19.105" rx="2" stroke="#F0AB00" stroke-width="2" stroke-linecap="round" stroke-linejoin="round"/>
    <rect x="39.2285" y="54.7881" width="10.3135" height="5.45215" stroke="#F0AB00" stroke-width="2" stroke-linecap="round" stroke-linejoin="round"/>
    <path d="M37.2461 79.3452V66.1519" stroke="#F0AB00" stroke-width="2" stroke-linecap="round" stroke-linejoin="round"/>
    <path d="M51.6152 79.3452V66.1519" stroke="#F0AB00" stroke-width="2" stroke-linecap="round" stroke-linejoin="round"/>
    <path d="M67.1861 43.0557C67.4268 43.0636 67.6575 43.1114 67.8724 43.1929L75.0142 46.169C75.6587 46.4376 76.1123 47.0742 76.1123 47.8162C76.1123 56.0482 71.0573 60.6336 67.8704 61.9625C67.6595 62.0501 67.4248 62.0978 67.1821 62.0978C66.9394 62.0978 66.7086 62.0501 66.4977 61.9625C62.517 60.3014 58.2578 55.1987 58.2578 47.8162C58.2578 47.0742 58.7134 46.4356 59.3599 46.169L66.4997 43.1929C66.7146 43.1114 66.9453 43.0636 67.1861 43.0557Z" stroke="black" stroke-width="2"/>
</svg>
