<svg width="48" height="49" viewBox="0 0 48 49" fill="none" xmlns="http://www.w3.org/2000/svg">
    <path fill-rule="evenodd" clip-rule="evenodd" d="M7.39643 0.294922H40.6036C44.6884 0.294922 48 3.60644 48 7.69135V40.8985C48 44.9833 44.6884 48.2949 40.6036 48.2949H7.39643C3.31152 48.2949 0 44.9833 0 40.8985V7.69135C0 3.60644 3.31152 0.294922 7.39643 0.294922Z" fill="#4C75A3"/>
    <path fill-rule="evenodd" clip-rule="evenodd" d="M23.5972 33.8963H25.5607C25.5607 33.8963 26.1536 33.8309 26.4568 33.5047C26.7355 33.2049 26.7266 32.6423 26.7266 32.6423C26.7266 32.6423 26.6882 30.0077 27.9107 29.6197C29.1164 29.2373 30.6642 32.1659 32.3047 33.2921C33.5453 34.1441 34.4881 33.9576 34.4881 33.9576L38.875 33.8963C38.875 33.8963 41.1698 33.7547 40.0816 31.9504C39.9925 31.803 39.4477 30.6158 36.8197 28.1764C34.0688 25.6233 34.4375 26.0363 37.751 21.62C39.7689 18.9305 40.5755 17.2886 40.3235 16.5854C40.0833 15.9154 38.599 16.0924 38.599 16.0924L33.6597 16.123C33.6597 16.123 33.2933 16.0731 33.0219 16.2355C32.7564 16.3943 32.586 16.7654 32.586 16.7654C32.586 16.7654 31.804 18.8465 30.7618 20.6167C28.5623 24.3513 27.6827 24.549 27.3232 24.3167C26.4868 23.7762 26.6958 22.1457 26.6958 20.9869C26.6958 17.3675 27.2448 15.8584 25.6267 15.4678C25.0899 15.3382 24.6944 15.2525 23.3212 15.2385C21.5587 15.2206 20.0673 15.244 19.2227 15.6577C18.6607 15.9329 18.2272 16.546 18.4914 16.5813C18.8179 16.6248 19.5571 16.7808 19.949 17.3141C20.4553 18.0029 20.4376 19.5492 20.4376 19.5492C20.4376 19.5492 20.7285 23.8099 19.7584 24.3389C19.0927 24.7019 18.1793 23.9609 16.2184 20.5726C15.2139 18.837 14.4552 16.9183 14.4552 16.9183C14.4552 16.9183 14.3091 16.5599 14.0481 16.368C13.7316 16.1355 13.2894 16.0618 13.2894 16.0618L8.59559 16.0924C8.59559 16.0924 7.89114 16.1121 7.63226 16.4185C7.40195 16.6913 7.61387 17.2547 7.61387 17.2547C7.61387 17.2547 11.2884 25.8518 15.4494 30.1843C19.2651 34.157 23.5972 33.8963 23.5972 33.8963Z" fill="white"/>
</svg>
