<svg width="104" height="104" viewBox="0 0 104 104" fill="none" xmlns="http://www.w3.org/2000/svg">
    <circle cx="52" cy="52.4204" r="50" stroke="#F0AB00" stroke-width="3"/>
    <path d="M48.9342 68.8938L49.9985 70.2684L48.9342 81.8857" stroke="#F0AB00" stroke-width="2" stroke-linecap="round" stroke-linejoin="bevel"/>
    <path d="M54.8374 68.8938L54.0005 70.2684L54.8374 81.8857" stroke="#F0AB00" stroke-width="2" stroke-linecap="round" stroke-linejoin="bevel"/>
    <path d="M40.3789 61.7741L41.556 56.9375C41.6936 56.5879 42.186 56.5811 42.3331 56.9269L42.8948 58.2468C43.5061 59.6835 45.5277 60.714 47.0652 60.9862L50.3148 61.5615C50.6908 61.6281 50.7899 62.1214 50.4688 62.328L47.6831 64.1205C47.659 64.1361 47.6428 64.1614 47.6389 64.1899C47.4507 65.5489 46.9849 66.8547 46.2704 68.026L45.503 69.284C45.4422 69.3837 45.3008 69.3927 45.2278 69.3015L43.5574 67.2134C43.046 66.5742 42.4519 66.0057 41.7907 65.523L41.381 65.224C40.3012 64.4357 39.8895 63.0181 40.3789 61.7741Z" stroke="black" stroke-width="2" stroke-linecap="round" stroke-linejoin="bevel"/>
    <path d="M63.6208 61.7741L62.4437 56.9375C62.3062 56.5879 61.8138 56.5811 61.6667 56.9269L61.105 58.2468C60.4936 59.6835 58.472 60.714 56.9346 60.9862L53.685 61.5615C53.309 61.6281 53.2098 62.1214 53.531 62.328L56.3166 64.1205C56.3408 64.1361 56.357 64.1614 56.3609 64.1899C56.5491 65.5489 57.0149 66.8547 57.7294 68.026L58.4968 69.284C58.5576 69.3837 58.699 69.3927 58.7719 69.3015L60.4424 67.2134C60.9538 66.5742 61.5479 66.0057 62.2091 65.523L62.6187 65.224C63.6985 64.4357 64.1103 63.0181 63.6208 61.7741Z" stroke="black" stroke-width="2" stroke-linecap="round" stroke-linejoin="bevel"/>
    <path d="M37.2139 63.0603L29.2716 66.0518C25.803 67.3409 23.192 70.2558 22.2911 73.8449L21.6655 76.337C20.9513 79.1823 22.8255 82.0236 25.734 82.406C32.7897 83.3336 43.2646 84.4205 51.8856 84.4205C60.5274 84.4205 71.1216 83.3284 78.2539 82.3993C81.1669 82.0198 83.047 79.1754 82.3318 76.3262L81.7089 73.8449C80.808 70.2558 78.197 67.3409 74.7284 66.0518L66.7201 63.0552" stroke="black" stroke-width="2" stroke-linecap="round" stroke-linejoin="bevel"/>
    <path d="M31.4801 83.0655V77.0874" stroke="black" stroke-width="2" stroke-linecap="round" stroke-linejoin="bevel"/>
    <path d="M72.3616 83.0655V77.0874" stroke="black" stroke-width="2" stroke-linecap="round" stroke-linejoin="bevel"/>
    <path d="M39.1739 37.5757C38.6689 38.2133 37.9395 40.1037 38.2585 42.5906C38.5775 45.0776 38.6978 46.288 39.6862 47.2398C40.6379 47.7523 42.6586 49.3702 43.1271 51.7423C43.7128 54.7073 46.2386 58.1745 51.8759 58.1745H52C57.6373 58.1745 60.1631 54.7073 60.7488 51.7423C61.2173 49.3702 63.2379 47.7523 64.1897 47.2398C65.178 46.288 65.2983 45.0776 65.6173 42.5906C65.9363 40.1037 65.2069 38.2133 64.702 37.5757" stroke="black" stroke-width="2" stroke-linecap="round" stroke-linejoin="bevel"/>
    <path d="M39.4351 37.6113C40.2814 37.5811 41.2577 39.3702 41.64 40.2686C41.1569 38.665 40.7574 35.1858 43.0244 34.0976C45.2913 33.0095 47.7472 33.8961 48.6917 34.4755C49.4726 35.0548 51.737 36.2134 54.548 36.2134C58.4472 36.2134 61.2859 34.5762 62.2178 33.7576C62.2178 34.954 62.2601 37.8746 62.2178 40.2686C62.2481 38.5556 63.9432 37.7833 64.787 37.6113C64.787 37.6113 66.3574 32.4198 63.4269 26.0878C61.7342 22.4304 59.0189 22.6748 57.8729 23.2541C56.9283 21.6294 55.3414 20.4204 50.6186 20.4204C41.5509 20.4204 38.8557 27.3975 38.6416 30.8861C38.5535 33.1404 38.5888 37.6416 39.4351 37.6113Z" stroke="black" stroke-width="2" stroke-linecap="round" stroke-linejoin="round"/>
</svg>
