<svg width="91" height="81" viewBox="0 0 91 81" fill="none" xmlns="http://www.w3.org/2000/svg">
    <path d="M46.3632 43.7368C46.3632 43.7368 63.2992 43.6609 69.348 44.2841C71.2361 44.4791 72.6392 45.3235 73.602 46.9609C77.9592 54.3741 82.3228 61.7827 86.6836 69.1932C87.4208 70.446 88.1717 71.6906 88.8933 72.9517C89.9959 74.8779 89.5172 77.093 87.7697 78.2447C86.0141 79.4019 83.8035 78.952 82.5146 77.1353C78.5209 71.5057 64.0912 56.9662 64.0912 56.9662" stroke="black" stroke-width="2" stroke-linecap="round" stroke-linejoin="round"/>
    <path d="M28.8717 40.736C28.8717 40.736 25.4331 31.7276 24.5835 28.8282C24.3753 28.1181 24.3725 27.3233 24.3954 26.5708C24.5105 22.8518 27.2883 20.5347 31.3121 20.7269C33.1546 20.8152 34.6609 21.4932 35.5825 23.16C38.7448 28.8807 48.1653 43.6511 48.1653 43.6511" stroke="black" stroke-width="2" stroke-linecap="round" stroke-linejoin="round"/>
    <path d="M25.1343 18.214C27.8865 19.8799 30.5237 19.121 32.1542 16.3374C33.2714 14.4315 33.6678 12.3323 33.7473 10.1375C33.6569 9.29493 33.6103 8.44405 33.4678 7.61065C32.7087 3.16125 29.2549 0.677613 25.0045 1.49905C21.3288 2.20919 18.709 5.46828 19.1209 8.9693C19.5987 13.0314 21.6832 16.124 25.1343 18.2131V18.214Z" stroke="black" stroke-width="2" stroke-linejoin="round"/>
    <path d="M64.0617 57.1309C63.1135 55.2479 61.6465 54.1882 59.4852 54.1165C57.2865 54.0438 55.0924 53.8543 52.8946 53.7568C52.2945 53.7301 51.9857 53.4937 51.7692 52.9372C51.0129 50.9898 50.2565 49.0397 49.4161 47.1282C48.4588 44.9472 46.8338 43.5895 44.4049 43.3421C39.2493 42.8168 34.1029 42.1757 28.9363 41.7976C25.7831 41.5667 23.7068 40.2347 22.7641 37.1734C22.5686 36.5378 22.2991 35.9252 22.0634 35.3024C20.4685 31.0821 18.8937 26.8534 17.2732 22.6432C16.1689 19.7732 14.2013 18.4486 11.1695 18.4431C9.21012 18.4394 7.24983 18.4403 5.29045 18.4467C3.18401 18.4532 1.42376 19.8017 1.18352 21.9082C1.04011 23.1602 1.14699 24.5363 1.51968 25.7376C5.7143 39.2762 9.97834 52.7928 14.2342 66.3121C15.1768 69.3053 17.2531 70.8323 20.3598 70.8351C27.8073 70.8424 35.2538 70.8378 42.7013 70.8369C47.1635 70.8369 51.6258 70.8369 56.0881 70.8369C59.1938 70.8369 62.2996 70.8608 65.4045 70.8249C68.2225 70.7927 69.6703 68.3459 68.4088 65.8255C66.9583 62.9279 65.5177 60.0257 64.0617 57.1318V57.1309Z" stroke="#F0AB00" stroke-width="2" stroke-linejoin="round"/>
    <path d="M23.0697 73.5439C23.0697 74.5484 23.067 75.4849 23.0697 76.4213C23.078 78.4505 23.8389 79.2269 25.8585 79.2287C33.4266 79.2342 40.9946 79.2315 48.5626 79.2315C52.3014 79.2315 56.0402 79.237 59.779 79.226C61.2278 79.2214 62.2015 78.4698 62.2591 77.2528C62.3166 76.0432 62.2719 74.829 62.2719 73.5439H23.0697V73.5439Z" stroke="#F0AB00" stroke-width="2" stroke-linejoin="round"/>
</svg>
