<svg width="96" height="96" viewBox="0 0 96 96" fill="none" xmlns="http://www.w3.org/2000/svg">
    <path d="M5.03461 55.6013L83.8856 55.6013" stroke="#F0AB00" stroke-width="2" stroke-linecap="round"/>
    <path d="M23.7491 59.6228L65.1711 59.6228" stroke="#F0AB00" stroke-width="2" stroke-linecap="round"/>
    <path d="M5.03461 52.1552H4.03461C4.03461 52.4204 4.13996 52.6748 4.3275 52.8623C4.51504 53.0498 4.76939 53.1552 5.03461 53.1552L5.03461 52.1552ZM13.9131 27.2302L13.1383 26.598L13.9131 27.2302ZM36.5161 13.3528L36.7168 14.3324C36.9868 14.2772 37.222 14.1129 37.3668 13.8784C37.5117 13.644 37.5534 13.3602 37.4821 13.094L36.5161 13.3528ZM83.8856 52.1552V53.1552C84.4379 53.1552 84.8856 52.7074 84.8856 52.1552H83.8856ZM75.0026 27.2248L75.7773 26.5924L75.0026 27.2248ZM52.4041 13.3528L51.4381 13.094C51.3668 13.3602 51.4085 13.6441 51.5535 13.8786C51.6984 14.1131 51.9337 14.2773 52.2038 14.3325L52.4041 13.3528ZM52.5263 9.61974L53.5071 9.42465L52.5263 9.61974ZM50.9848 6.21763L50.1914 6.82639L50.9848 6.21763ZM36.3939 9.61974L35.4131 9.42465L36.3939 9.61974ZM6.03461 52.1552C6.03461 43.3026 9.09129 34.7215 14.688 27.8624L13.1383 26.598C7.25039 33.8141 4.03461 42.8418 4.03461 52.1552H6.03461ZM14.688 27.8624C20.2932 20.9929 28.0571 16.106 36.7168 14.3324L36.3155 12.3731C27.1785 14.2444 19.0177 19.3925 13.1383 26.598L14.688 27.8624ZM75.7773 26.5924C69.8953 19.3864 61.7448 14.2416 52.6044 12.373L52.2038 14.3325C60.866 16.1033 68.6197 20.9864 74.2279 27.8571L75.7773 26.5924ZM53.37 13.6116C53.7362 12.2449 53.7831 10.8123 53.5071 9.42465L51.5455 9.81483C51.7617 10.9016 51.7249 12.0236 51.4381 13.094L53.37 13.6116ZM53.5071 9.42465C53.231 8.03696 52.6395 6.73136 51.7782 5.60886L50.1914 6.82639C50.866 7.7055 51.3293 8.72802 51.5455 9.81483L53.5071 9.42465ZM51.7782 5.60886C50.9168 4.48636 49.8088 3.57705 48.5399 2.95127L47.6553 4.74501C48.6491 5.23511 49.5169 5.94727 50.1914 6.82639L51.7782 5.60886ZM48.5399 2.95127C47.2709 2.32548 45.875 2 44.4601 2V4C45.5682 4 46.6615 4.25491 47.6553 4.74501L48.5399 2.95127ZM44.4601 2C43.0452 2 41.6493 2.32548 40.3803 2.95127L41.2649 4.74501C42.2587 4.25491 43.352 4 44.4601 4V2ZM40.3803 2.95127C39.1114 3.57705 38.0034 4.48636 37.142 5.60886L38.7288 6.82639C39.4033 5.94727 40.2711 5.23511 41.2649 4.74501L40.3803 2.95127ZM37.142 5.60886C36.2807 6.73136 35.6892 8.03696 35.4131 9.42465L37.3747 9.81483C37.5909 8.72802 38.0542 7.7055 38.7288 6.82639L37.142 5.60886ZM35.4131 9.42465C35.1371 10.8123 35.184 12.2449 35.5502 13.6116L37.4821 13.094C37.1953 12.0236 37.1585 10.9016 37.3747 9.81483L35.4131 9.42465ZM84.8856 52.1552C84.8856 42.8393 81.6681 33.8093 75.7773 26.5924L74.2279 27.8571C79.8273 34.717 82.8856 43.3002 82.8856 52.1552H84.8856ZM5.03461 53.1552L83.8856 53.1552V51.1552L5.03461 51.1552L5.03461 53.1552Z" fill="#F0AB00"/>
    <path d="M28.5115 23.0744C25.8526 24.4422 23.4105 26.2442 21.2916 28.4C18.9363 30.7962 17.0607 33.5869 15.7347 36.6213" stroke="#F0AB00" stroke-width="2" stroke-linecap="round" stroke-linejoin="round"/>
    <path d="M70.6424 67.5958C68.646 67.2929 67.4235 66.6957 65.6267 66.0686C64.0497 65.5182 56.8892 63.2532 52.1321 66.0686C47.375 68.884 45.7246 70.3404 41.3559 70.3404C36.9871 70.3404 29.9548 68.8247 29.3723 74.8438C29.1484 77.1581 31.0322 77.2479 31.841 77.1581C33.6048 77.1582 36.5199 77.1581 37.9906 78.3023C39.1194 79.1804 41.7805 79.8754 43.4252 79.0889C45.0699 78.3023 48.3047 77.4442 50.2184 77.8732" stroke="black" stroke-width="2" stroke-linecap="round"/>
    <path d="M30.3263 72.2974L21.4548 66.0067C19.8419 65.039 15.9869 63.8131 13.4706 66.652C11.7039 68.1858 15.5353 69.9103 17.3418 72.2974L27.0854 81.6233C29.1905 83.68 34.8526 87.8806 40.6599 88.229C46.4672 88.5775 50.4839 87.5515 51.7663 86.995C54.7668 85.6158 61.5371 83.3509 64.6149 85.3254" stroke="black" stroke-width="2" stroke-linecap="round"/>
    <path d="M69.8827 85.0696L75.9334 87.3533M63.3762 87.3533C67.7187 83.7509 71.0249 73.2894 70.6796 65.0979L88.247 70.674C89.7932 71.0688 92.3231 73.4078 90.0728 79.6058C87.8226 85.8038 85.0888 89.9851 84.0032 91.301C83.5261 92.1893 81.6148 93.6993 77.7854 92.6334C73.9561 91.5675 66.5837 88.6692 63.3762 87.3533Z" stroke="black" stroke-width="2" stroke-linecap="round" stroke-linejoin="round"/>
    <circle cx="44.4601" cy="10.7134" r="2.33207" stroke="#F0AB00" stroke-width="2" stroke-linecap="round"/>
    <path d="M23.5157 59.3479L20.4348 55.8721" stroke="#F0AB00" stroke-width="2" stroke-linecap="round" stroke-linejoin="round"/>
    <path d="M65.1711 59.6228L68.252 56.147" stroke="#F0AB00" stroke-width="2" stroke-linecap="round" stroke-linejoin="round"/>
</svg>
