<svg width="48" height="49" viewBox="0 0 48 49" fill="none" xmlns="http://www.w3.org/2000/svg">
    <path d="M37.4286 0.294922H10.5714C4.73299 0.294922 0 5.02792 0 10.8664V37.7235C0 43.5619 4.73299 48.2949 10.5714 48.2949H37.4286C43.267 48.2949 48 43.5619 48 37.7235V10.8664C48 5.02792 43.267 0.294922 37.4286 0.294922Z" fill="url(#paint0_linear_981_66154)"/>
    <path d="M24.0002 8.60547C19.3277 8.6055 14.8465 10.1516 11.5425 12.9036C8.23853 15.6556 6.38236 19.3881 6.38232 23.28C6.38658 25.8115 7.177 28.299 8.67676 30.5008C10.1765 32.7026 12.3346 34.5438 14.9413 35.8455C14.2471 37.3997 13.2058 38.8572 11.8607 40.1576C14.4692 39.6997 16.9179 38.7377 19.0161 37.3466C20.6339 37.747 22.3124 37.9517 24.0002 37.9545C28.6727 37.9544 33.1539 36.4084 36.4579 33.6564C39.7619 30.9044 41.618 27.1719 41.6181 23.28C41.618 19.3881 39.7619 15.6556 36.4579 12.9036C33.1539 10.1516 28.6727 8.6055 24.0002 8.60547Z" fill="white"/>
    <defs>
        <linearGradient id="paint0_linear_981_66154" x1="24.3809" y1="45.1086" x2="24.3809" y2="6.25194" gradientUnits="userSpaceOnUse">
            <stop stop-color="#0CBD2A"/>
            <stop offset="1" stop-color="#5BF675"/>
        </linearGradient>
    </defs>
</svg>
