<svg width="88" height="83" viewBox="0 0 88 83" fill="none" xmlns="http://www.w3.org/2000/svg">
    <path d="M10.4408 72.624C5.29859 72.0722 2.73563 68.4711 2.20183 63.3504C1.31764 54.8686 2.87052 57.9919 9.61798 55.4065C21.4611 50.8686 28.8681 44.9212 42.5416 47.295C52.1014 48.9548 60.0787 54.6554 69.036 57.495C73.3451 58.861 82.1604 58.8424 84.8303 63.4211C88.3447 69.4468 83.4816 71.8933 78.329 72.607" stroke="black" stroke-width="2" stroke-miterlimit="10" stroke-linecap="round" stroke-linejoin="round"/>
    <path d="M29.2314 73.4053L59.518 73.1698" stroke="black" stroke-width="2" stroke-miterlimit="10" stroke-linecap="round" stroke-linejoin="round"/>
    <path d="M81.9103 65.2163C81.6038 65.2092 81.2097 65.183 80.8045 65.1461C77.7599 64.869 77.1114 64.1737 76.2949 62.6174" stroke="black" stroke-width="2" stroke-miterlimit="10" stroke-linecap="round" stroke-linejoin="round"/>
    <path d="M27.5741 71.5962C27.5741 68.0742 24.7189 65.2189 21.1967 65.2189C17.6747 65.2189 14.8193 68.0742 14.8193 71.5962C14.8193 75.1184 17.6747 77.9736 21.1967 77.9736C24.7189 77.9736 27.5741 75.1184 27.5741 71.5962Z" stroke="black" stroke-width="2" stroke-miterlimit="10" stroke-linecap="round" stroke-linejoin="round"/>
    <path d="M73.8886 71.5962C73.8886 68.0742 71.0332 65.2189 67.5112 65.2189C63.989 65.2189 61.1338 68.0742 61.1338 71.5962C61.1338 75.1184 63.989 77.9736 67.5112 77.9736C71.0332 77.9736 73.8886 75.1184 73.8886 71.5962Z" stroke="black" stroke-width="2" stroke-miterlimit="10" stroke-linecap="round" stroke-linejoin="round"/>
    <path d="M20.1918 58.1553L56.5379 60.0779C57.1571 60.1188 57.3642 59.2052 56.7963 58.9376C55.6278 58.3864 54.3514 57.7766 53.4814 57.3385C49.3104 55.2405 46.0577 53.9066 40.9926 52.6963C33.3042 50.8592 26.6826 54.8819 20.1918 58.1553Z" stroke="black" stroke-width="2" stroke-miterlimit="10" stroke-linecap="round" stroke-linejoin="round"/>
    <path d="M5.64551 81.6748H81.2901" stroke="#F0AB00" stroke-width="2" stroke-miterlimit="10" stroke-linecap="round" stroke-linejoin="round"/>
    <path d="M58.2307 1.16505H22.8298C19.7698 1.16505 17.2891 3.64576 17.2891 6.70574V27.4928C17.2891 30.5528 19.7698 33.0335 22.8298 33.0335H34.3833C34.7561 33.0335 35.0578 33.3356 35.0578 33.7079V40.9392C35.0578 41.54 35.784 41.8408 36.2093 41.4156L44.3939 33.2309C44.5202 33.1047 44.6917 33.0335 44.8705 33.0335H58.2307C61.2909 33.0335 63.771 30.5528 63.771 27.4928V6.70574C63.771 3.64576 61.2909 1.16505 58.2307 1.16505Z" stroke="#F0AB00" stroke-width="2" stroke-miterlimit="10" stroke-linecap="round" stroke-linejoin="round"/>
    <path d="M48.5868 17.4327H52.4913C54.6185 17.4327 56.3584 15.6926 56.3584 13.5656C56.3584 11.4384 54.6185 9.69801 52.4913 9.69801H48.4014V24.502" stroke="#F0AB00" stroke-width="2" stroke-miterlimit="10" stroke-linecap="round" stroke-linejoin="round"/>
    <path d="M41.9404 9.69801V24.502" stroke="#F0AB00" stroke-width="2" stroke-miterlimit="10" stroke-linecap="round" stroke-linejoin="round"/>
    <path d="M24.9746 9.69801L30.6163 24.502L35.925 9.69801" stroke="#F0AB00" stroke-width="2" stroke-miterlimit="10" stroke-linecap="round" stroke-linejoin="round"/>
</svg>
