<svg width="104" height="104" viewBox="0 0 104 104" fill="none" xmlns="http://www.w3.org/2000/svg">
    <circle cx="52" cy="52.4204" r="50" stroke="#F0AB00" stroke-width="3"/>
    <path d="M49.776 78.1432C52.697 78.3437 55.2338 78.8094 56.9139 79.4535C58.594 80.0975 59.3027 80.8761 58.9079 81.6441C58.5132 82.4121 57.042 83.1172 54.7684 83.6279C52.4948 84.1387 49.5739 84.4203 46.5498 84.4203C43.5258 84.4203 40.6049 84.1387 38.3313 83.6279C36.0577 83.1172 34.5865 82.4121 34.1917 81.6441C33.797 80.8761 34.5057 80.0975 36.1858 79.4535C37.8659 78.8094 40.4027 78.3437 43.3237 78.1432" stroke="black" stroke-width="2" stroke-linecap="round" stroke-linejoin="round"/>
    <path d="M49.998 81.1647C49.6352 81.2699 49.1331 81.3569 48.5376 81.4176C47.9422 81.4784 47.2726 81.5108 46.5904 81.5121C45.9081 81.5133 45.2351 81.4833 44.6331 81.4248C44.0311 81.3663 43.5194 81.2812 43.1451 81.1772" stroke="black" stroke-width="2" stroke-linecap="round" stroke-linejoin="round"/>
    <path d="M46.5495 80.2503L46.5495 74.1943" stroke="black" stroke-width="2" stroke-linecap="round" stroke-linejoin="round"/>
    <path d="M34.1983 28.1635C40.4098 30.0899 47.1457 26.6847 50.2712 24.7936C53.3968 22.9026 55.3967 22.5781 57.1605 24.4434C58.8601 26.2409 57.2305 30.0695 55.9699 32.2173L50.8768 42.0019C49.8491 43.5619 49.2463 46.906 51.2284 49.5928C53.706 52.9513 60.9319 49.8078 63.5184 49.5928C65.993 49.3871 69.6811 49.5239 70.8467 53.2019M61.7573 63.0431C59.0001 62.4338 55.7816 60.8351 53.2504 57.3107C48.9338 51.3003 44.0928 49.5928 40.4098 49.5928C35.8337 49.5928 31.5043 52.0507 31.5043 52.0507C31.5043 52.0507 29.4945 51.3773 30.4994 42.0019C31.5043 32.6265 30.658 20.4204 25.5802 20.4204C20.5024 20.4204 20.2909 34.5253 20.8199 41.5778C21.3306 52.2742 27.2808 73.667 46.9959 73.667C55.8324 73.667 61.219 69.7672 64.1569 66.4571" stroke="black" stroke-width="2" stroke-linecap="round" stroke-linejoin="round"/>
    <path d="M78.7289 73.2397H64.242L64.9846 79.9688C65.2642 82.5026 67.4053 84.4204 69.9545 84.4204H73.0165C75.5657 84.4204 77.7067 82.5026 77.9864 79.9688L78.7289 73.2397Z" stroke="#F0AB00" stroke-width="2" stroke-linecap="round" stroke-linejoin="round"/>
    <path d="M72.4175 73.2398C73.0918 68.2041 73.7433 64.747 75.2292 61.9931M75.2292 61.9931C76.4999 59.6381 78.3808 57.7973 81.4078 55.9234C87.4458 52.1854 77.5858 50.5255 78.5642 53.1109C78.9425 54.0588 77.9868 54.3644 76.9131 54.3644C74.6607 54.4358 70.3087 55.4835 70.9202 59.1037C71.1649 60.3268 72.5306 60.3675 73.1829 60.235C74.1088 60.1127 75.8144 60.2931 75.2292 61.9931Z" stroke="#F0AB00" stroke-width="2" stroke-linecap="round" stroke-linejoin="round"/>
    <path d="M73.0484 68.7916C72.9923 69.5429 73.1962 70.8638 74.4609 70.1372C75.5506 69.5111 76.1608 68.3416 76.4127 67.1686C76.6041 66.2773 75.9194 65.4691 75.0079 65.4822C74.4321 65.4904 73.9805 65.5673 73.7545 65.6301C72.9248 65.8879 71.3126 66.6927 71.5009 67.8497C71.6893 69.0067 72.6111 68.6906 73.0484 68.3879" stroke="#F0AB00" stroke-width="2" stroke-linecap="round" stroke-linejoin="round"/>
    <path d="M70.7942 73.2316C70.2786 71.5722 68.8101 67.7355 67.061 65.6637M67.061 65.6637C65.312 63.5919 64.202 61.9528 63.8657 61.3922C63.6845 61.0089 63.5233 60.4367 63.7568 60.1814C65.8649 57.8766 69.6806 63.441 70.1448 65.3381C70.4725 66.6775 70.3135 67.6345 69.0035 66.0784C68.9419 66.0052 68.8879 65.9243 68.8315 65.8471C68.5133 65.4112 67.8238 64.901 67.061 65.6637Z" stroke="#F0AB00" stroke-width="2" stroke-linecap="round" stroke-linejoin="round"/>
</svg>
