<svg width="64" height="65" viewBox="0 0 64 65" fill="none" xmlns="http://www.w3.org/2000/svg">
    <circle cx="32.0005" cy="32.2949" r="32" fill="white"/>
    <path d="M49.3655 29.9557H43.622C42.8603 29.9557 42.1299 30.2583 41.5913 30.7968C41.0528 31.3354 40.7502 32.0658 40.7502 32.8274V40.0068C40.7502 40.7684 41.0528 41.4989 41.5913 42.0374C42.1299 42.576 42.8603 42.8786 43.622 42.8786H46.4937C47.2553 42.8786 47.9858 42.576 48.5243 42.0374C49.0629 41.4989 49.3655 40.7684 49.3655 40.0068M49.3655 29.9557V40.0068M49.3655 29.9557C49.3655 27.6808 48.9151 25.4284 48.0403 23.3285C47.1654 21.2286 45.8833 19.3227 44.2681 17.7209C42.6529 16.119 40.7364 14.8528 38.6293 13.9954C36.5222 13.1379 34.2662 12.7063 31.9914 12.7252C29.7181 12.7086 27.464 13.1421 25.359 14.0006C23.2539 14.8591 21.3396 16.1256 19.7263 17.7273C18.113 19.3289 16.8325 21.234 15.9588 23.3327C15.085 25.4315 14.6352 27.6823 14.6353 29.9557M49.3655 40.0068V44.3144C49.3655 45.8377 48.7603 47.2986 47.6832 48.3757C46.6061 49.4528 45.1452 50.0579 43.622 50.0579H33.3016M14.6353 29.9557V40.0068C14.6353 40.7684 14.9378 41.4989 15.4764 42.0374C16.0149 42.576 16.7454 42.8786 17.507 42.8786H20.3787C21.1404 42.8786 21.8708 42.576 22.4094 42.0374C22.9479 41.4989 23.2505 40.7684 23.2505 40.0068V32.8274C23.2505 32.0658 22.9479 31.3354 22.4094 30.7968C21.8708 30.2583 21.1404 29.9557 20.3787 29.9557H14.6353Z" stroke="black" stroke-width="2" stroke-linecap="round" stroke-linejoin="round"/>
</svg>
