<svg width="104" height="104" viewBox="0 0 104 104" fill="none" xmlns="http://www.w3.org/2000/svg">
    <circle cx="52" cy="52.4204" r="50" stroke="#F0AB00" stroke-width="3"/>
    <path d="M41.381 65.2242C40.3013 64.436 39.8895 63.0184 40.3789 61.7743L41.556 56.9378C41.6936 56.5881 42.186 56.5814 42.3331 56.9271L42.8948 58.2471C43.5061 59.6837 45.5277 60.7143 47.0652 60.9865L50.3148 61.5618C50.6908 61.6283 50.7899 62.1216 50.4688 62.3283L49.076 63.2245" stroke="black" stroke-width="2" stroke-linecap="round" stroke-linejoin="bevel"/>
    <path d="M62.6187 65.2242C63.6985 64.436 64.1103 63.0184 63.6208 61.7743L62.4437 56.9378C62.3062 56.5881 61.8138 56.5814 61.6667 56.9271L61.105 58.2471C60.4936 59.6837 58.472 60.7143 56.9346 60.9865L53.685 61.5618C53.309 61.6283 53.2098 62.1216 53.531 62.3283L54.9238 63.2245" stroke="black" stroke-width="2" stroke-linecap="round" stroke-linejoin="bevel"/>
    <path d="M37.2138 63.0603L29.2716 66.0518C25.803 67.3409 23.192 70.2558 22.2911 73.8449L21.6655 76.337C20.9513 79.1823 22.8254 82.0236 25.734 82.406C32.7896 83.3336 43.2645 84.4205 51.8855 84.4205C60.5273 84.4205 71.1216 83.3284 78.2539 82.3993C81.1669 82.0198 83.047 79.1754 82.3318 76.3262L81.7089 73.8449C80.808 70.2558 78.197 67.3409 74.7284 66.0518L66.7201 63.0552" stroke="black" stroke-width="2" stroke-linecap="round" stroke-linejoin="bevel"/>
    <path d="M31.4801 83.0653V77.0872" stroke="black" stroke-width="2" stroke-linecap="round" stroke-linejoin="bevel"/>
    <path d="M72.3616 83.0653V77.0872" stroke="black" stroke-width="2" stroke-linecap="round" stroke-linejoin="bevel"/>
    <path d="M52.0002 83.0652L52.0002 69.8633" stroke="black" stroke-width="2" stroke-linecap="round" stroke-linejoin="bevel"/>
    <path d="M39.1739 37.5757C38.6689 38.2133 37.9395 40.1037 38.2585 42.5906C38.5775 45.0776 38.6978 46.288 39.6862 47.2398C40.6379 47.7523 42.6586 49.3702 43.1271 51.7423C43.7128 54.7073 46.2386 58.2634 51.8759 58.2634H52C57.6373 58.2634 60.1631 54.7073 60.7488 51.7423C61.2173 49.3702 63.2379 47.7523 64.1897 47.2398C65.178 46.288 65.2984 45.0776 65.6174 42.5906C65.9363 40.1037 65.207 38.2133 64.702 37.5757" stroke="black" stroke-width="2" stroke-linecap="round" stroke-linejoin="bevel"/>
    <path d="M39.435 37.6113C40.2814 37.5811 41.2576 39.3702 41.6399 40.2686C41.1568 38.665 40.7574 35.1858 43.0243 34.0976C45.2912 33.0095 47.7471 33.8961 48.6917 34.4755C49.4725 35.0548 51.7369 36.2134 54.5479 36.2134C58.4471 36.2134 61.2858 34.5762 62.2178 33.7576C62.2178 34.954 62.26 37.8746 62.2178 40.2686C62.248 38.5556 63.9432 37.7833 64.787 37.6113C64.787 37.6113 66.3573 32.4197 63.4268 26.0878C61.7342 22.4304 59.0189 22.6748 57.8728 23.2541C56.9282 21.6294 55.3414 20.4204 50.6186 20.4204C41.5508 20.4204 38.8557 27.3975 38.6416 30.8861C38.5534 33.1404 38.5887 37.6416 39.435 37.6113Z" stroke="black" stroke-width="2" stroke-linecap="round" stroke-linejoin="round"/>
    <rect x="49.7267" y="65.9407" width="4.54629" height="3.92287" rx="1.96144" stroke="#F0AB00" stroke-width="2"/>
    <path d="M49.7275 66.3069L46.6308 65.3764C45.3474 64.9908 44.0553 65.9517 44.0553 67.2918V68.512C44.0553 69.8521 45.3474 70.8131 46.6308 70.4274L49.7275 69.497" stroke="#F0AB00" stroke-width="2"/>
    <path d="M54.273 66.3069L57.3697 65.3764C58.6531 64.9908 59.9452 65.9517 59.9452 67.2918V68.512C59.9452 69.8521 58.6531 70.8131 57.3697 70.4274L54.273 69.497" stroke="#F0AB00" stroke-width="2"/>
    <circle cx="46.8913" cy="78.2801" r="1.79623" stroke="black" stroke-width="2" stroke-linecap="round" stroke-linejoin="bevel"/>
    <circle cx="57.1092" cy="78.2608" r="1.79623" stroke="black" stroke-width="2" stroke-linecap="round" stroke-linejoin="bevel"/>
</svg>
