<svg width="94" height="85" viewBox="0 0 94 85" fill="none" xmlns="http://www.w3.org/2000/svg">
    <path d="M35.2012 51.3496L48.5356 46.7602M48.5356 46.7602L51.2831 45.8146C52.5045 45.3942 53.798 46.2246 53.9244 47.5101L56.8984 77.7699C57.014 78.9461 56.0845 79.9655 54.9026 79.9655V79.9655C53.8697 79.9655 53.0023 79.179 52.9067 78.1505L50.2162 49.1877C50.1756 48.7506 49.9923 48.339 49.6947 48.0164L48.5356 46.7602Z" stroke="black" stroke-width="2" stroke-linecap="round" stroke-linejoin="round"/>
    <path d="M9.74052 52.6284L18.4007 49.4958M9.74052 52.6284L6.99702 53.6445C6.29143 53.9059 5.79221 54.5411 5.7051 55.2885L3.34073 75.5736C3.2165 76.6395 4.04957 77.5753 5.12268 77.5753V77.5753C6.02987 77.5753 6.79429 76.8981 6.90362 75.9975L9.74052 52.6284ZM18.4007 49.4958L22.3972 48.1279C23.618 47.7101 24.9091 48.5404 25.0353 49.8245L28.0098 80.0887C28.1254 81.2649 27.1971 82.2844 26.0152 82.2844V82.2844C24.9814 82.2844 24.1145 81.4964 24.0201 80.4669L21.3787 51.6525C21.3024 50.8202 20.7166 50.1231 19.9099 49.9046L18.4007 49.4958Z" stroke="black" stroke-width="2" stroke-linecap="round" stroke-linejoin="round"/>
    <path d="M51.8795 67.3296L30.7203 68.176L26.9115 68.2818M7.49219 70.8091L9.03215 69.4792C9.37463 69.1835 9.80727 69.0126 10.2594 68.9945L20.1407 68.5992L22.7856 68.4934" stroke="black" stroke-width="2" stroke-linecap="round" stroke-linejoin="round"/>
    <path d="M37.4204 58.9042L31.576 38.5272L5.29492 37.4106L11.6506 59.9128L21.5274 59.5262M51.1579 58.3665L31.4042 59.1397L26.4658 59.3329" stroke="black" stroke-width="2" stroke-linecap="round" stroke-linejoin="round"/>
    <path d="M5.30127 37.4346L1.36426 42.0171L5.30127 55.9319" stroke="black" stroke-width="2" stroke-linecap="round" stroke-linejoin="round"/>
    <path d="M38.5414 50.2933L35.6181 73.9223C35.5058 74.8298 34.7348 75.5114 33.8203 75.5114V75.5114C32.7257 75.5114 31.8811 74.548 32.0244 73.4627L32.7264 68.1469" stroke="black" stroke-width="2" stroke-linecap="round" stroke-linejoin="round"/>
    <ellipse cx="29.7087" cy="21.5071" rx="12.0837" ry="1.83569" stroke="#F0AB00" stroke-width="2" stroke-linecap="round" stroke-linejoin="round"/>
    <path d="M17.5176 21.439L18.9785 10.1696C19.0985 9.24399 19.8427 8.52446 20.7718 8.43574L26.9934 7.84159C28.7639 7.67252 30.5465 7.67252 32.317 7.84159L38.5461 8.43644C39.4718 8.52484 40.2144 9.23961 40.3381 10.1613L41.8523 21.439" stroke="#F0AB00" stroke-width="2" stroke-linecap="round" stroke-linejoin="round"/>
    <path d="M29.7031 7.5874V1.30811" stroke="#F0AB00" stroke-width="2" stroke-linecap="round" stroke-linejoin="round"/>
    <path d="M69.7673 66.5202L66.769 66.9431C66.0844 67.0397 65.4992 67.4803 65.2677 68.1319C63.9868 71.7361 60.8117 83.5327 74.1278 83.5327C86.384 83.5327 83.103 71.7457 81.8109 68.1362C81.5771 67.483 80.9904 67.0394 80.3033 66.9425L77.3094 66.5202C74.8078 66.1673 72.269 66.1673 69.7673 66.5202Z" stroke="#F0AB00" stroke-width="2" stroke-linecap="round" stroke-linejoin="round"/>
    <path d="M74.87 65.9306C75.963 57.7681 77.0191 52.1644 79.4277 47.7005M79.4277 47.7005C81.4874 43.8832 84.5362 40.8994 89.4429 37.8618C99.23 31.8028 83.2476 29.1122 84.8336 33.3029C85.4467 34.8394 83.8976 35.3349 82.1572 35.3349C78.5062 35.4505 71.4519 37.1488 72.4431 43.017C72.8396 44.9994 75.0534 45.0655 76.1107 44.8508C77.6116 44.6525 80.3763 44.9448 79.4277 47.7005Z" stroke="#F0AB00" stroke-width="2" stroke-linecap="round" stroke-linejoin="round"/>
    <path d="M75.8923 58.7206C75.8013 59.9384 76.1319 62.0795 78.1818 60.9017C80.2431 59.7174 81.2459 57.3338 81.5025 55.1413C81.6085 54.2359 80.9386 53.4454 80.0292 53.3825C78.6457 53.2867 77.5213 53.4612 77.0368 53.5959C75.692 54.0137 73.0787 55.3183 73.384 57.1938C73.6893 59.0693 75.1834 58.5568 75.8923 58.0661" stroke="#F0AB00" stroke-width="2" stroke-linecap="round" stroke-linejoin="round"/>
    <path d="M72.2382 65.9173C71.4024 63.2275 69.0221 57.0085 66.187 53.6502M66.187 53.6502C63.3518 50.2919 61.5527 47.635 61.0075 46.7264C60.7138 46.105 60.4524 45.1776 60.831 44.7637C64.2482 41.0277 70.433 50.0473 71.1855 53.1224C71.7215 55.3126 71.4544 56.8722 69.2788 54.2544C69.2177 54.1808 69.162 54.0993 69.1082 54.0203C68.6183 53.3007 67.4662 52.371 66.187 53.6502Z" stroke="#F0AB00" stroke-width="2" stroke-linecap="round" stroke-linejoin="round"/>
    <path d="M54.9229 32.9445L57.7094 31.4149V27.0439" stroke="black" stroke-width="2" stroke-linecap="round" stroke-linejoin="round"/>
    <path d="M51.9299 36.1004C50.5715 34.5986 49.8652 32.6186 49.9666 30.5961C50.068 28.5736 50.9686 26.6742 52.4704 25.3157C53.9722 23.9572 55.9522 23.251 57.9747 23.3523C59.9972 23.4537 61.8966 24.3544 63.2551 25.8562C64.6136 27.358 65.3198 29.3379 65.2185 31.3604C65.1171 33.383 64.2164 35.2824 62.7146 36.6409C61.2128 37.9993 59.2329 38.7056 57.2104 38.6042C55.1878 38.5028 53.2884 37.6022 51.9299 36.1004L51.9299 36.1004Z" stroke="black" stroke-width="2" stroke-linecap="round"/>
    <circle cx="57.7099" cy="31.3303" r="0.862973" fill="black"/>
</svg>
