<svg width="72" height="83" viewBox="0 0 72 83" fill="none" xmlns="http://www.w3.org/2000/svg">
    <path d="M12.6903 65.1835C10.0255 62.9174 6.99572 60.1291 4.62155 56.9754C-2.67496 47.2834 1.45218 32.2099 14.8449 31.5999M18.4958 65.1835C20.5362 63.4484 22.9423 61.4071 25.0236 59.1301" stroke="#F0AB00" stroke-width="2"/>
    <path d="M14.0292 65.1913C12.5854 62.9247 10.9438 60.1358 9.6574 56.9814C5.62178 47.0857 8.03582 31.5811 15.6558 31.5811" stroke="#F0AB00" stroke-width="2"/>
    <path d="M12.7373 69.375H18.6469L17.7041 73.5585H13.6801L12.7373 69.375Z" stroke="#F0AB00" stroke-width="2" stroke-linejoin="round"/>
    <path d="M12.7373 65.1904H18.6469L17.7041 69.3739H13.6801L12.7373 65.1904Z" stroke="#F0AB00" stroke-width="2" stroke-linejoin="round"/>
    <path d="M37.2108 65.5434C32.1147 61.2097 26.3206 55.8774 21.7803 49.8465C7.53655 30.9263 16.057 1.28223 42.9518 1.28223C69.8466 1.28223 78.367 30.9263 64.1232 49.8465C59.5829 55.8774 53.7888 61.2097 48.6927 65.5434" stroke="black" stroke-width="2"/>
    <path d="M38.5234 65.5577C34.8235 61.2231 30.6169 55.8895 27.3205 49.8573C16.9792 30.9329 23.1652 1.28223 42.6914 1.28223C62.2176 1.28223 68.4036 30.9329 58.0623 49.8573C54.7659 55.8895 50.5593 61.2231 46.8594 65.5577" stroke="black" stroke-width="2"/>
    <path d="M40.6268 65.5577C38.8656 61.2231 36.8632 55.8895 35.2942 49.8573C30.3717 30.9329 33.3162 1.28223 42.6108 1.28223C51.9053 1.28223 54.8499 30.9329 49.9274 49.8573C48.3583 55.8895 46.3559 61.2231 44.5948 65.5577" stroke="black" stroke-width="2"/>
    <path d="M37.1102 73.5581H48.4116L46.6086 81.5585H38.9132L37.1102 73.5581Z" stroke="black" stroke-width="2" stroke-linejoin="round"/>
    <path d="M37.1102 65.5576H48.4116L46.6086 73.558H38.9132L37.1102 65.5576Z" stroke="black" stroke-width="2" stroke-linejoin="round"/>
    <path d="M15.0488 29.9932C15.8321 30.2883 16.71 30.6201 17.5 30.8897M70.9186 30.1238C69.0303 30.8353 67.3514 31.3419 65.4267 31.9048M45.7167 35.0594C50.0463 34.9169 54.3671 34.4207 58.635 33.5708M37.7546 34.9229C33.8864 34.6625 30.0328 34.1191 26.2251 33.2926M26.2251 33.2926C23.9684 32.8028 21.7278 32.2135 19.5099 31.5248L26.2251 33.2926Z" stroke="black" stroke-width="2" stroke-linecap="round" stroke-linejoin="round"/>
</svg>
