<svg width="15" height="19" viewBox="0 0 15 19" fill="none" xmlns="http://www.w3.org/2000/svg">
    <path d="M6.8202 17.5766L6.8184 17.5745C6.56614 17.2745 6.27935 16.9475 5.97071 16.5955C5.08286 15.583 4.01409 14.3642 3.06556 12.9904C1.78837 11.1406 0.799805 9.10281 0.799805 7.06829C0.799805 3.62258 3.69385 0.800781 7.29981 0.800781C10.9044 0.800781 13.7998 3.62265 13.7998 7.06829C13.7998 8.88365 12.8087 10.9185 11.5185 12.8345C10.4928 14.3577 9.32292 15.7434 8.4093 16.8257C8.18112 17.096 7.96892 17.3474 7.77894 17.5772C7.53031 17.8755 7.06855 17.8753 6.8202 17.5766Z" stroke="white"/>
    <path d="M10.2998 7.15806C10.2998 8.7658 8.96643 10.0866 7.29981 10.0866C5.63318 10.0866 4.2998 8.7658 4.2998 7.15806C4.2998 5.55033 5.63318 4.22949 7.29981 4.22949C8.96643 4.22949 10.2998 5.55033 10.2998 7.15806Z" stroke="white"/>
</svg>
